<svg width="285" height="278" viewBox="0 0 285 278" fill="none" xmlns="http://www.w3.org/2000/svg">
<path d="M270.823 61.0864C244.534 61.0864 244.49 98.4727 270.823 98.4727C297.156 98.4727 297.156 61.0864 270.823 61.0864Z" fill="#EBEBEB"/>
<path d="M286.814 83.2813C285.41 89.7181 280.075 95.2921 270.823 95.2921C248.968 95.2921 249.006 64.267 270.823 64.267H271.252C250.719 64.6449 250.82 94.0261 271.655 94.0261C280.151 94.0324 285.215 89.1135 286.814 83.2813Z" fill="#DBDBDB"/>
<path d="M221.118 15.6511C205.372 27.076 222.289 50.3857 238.041 38.9545C253.793 27.5232 236.895 4.20719 221.118 15.6511Z" fill="#DBDBDB"/>
<path d="M222.616 14.5804C207.633 25.47 224.506 48.7797 239.54 37.8838C254.574 26.9879 237.631 3.67185 222.616 14.5804Z" fill="#EBEBEB"/>
<path d="M241.782 21.7793C243.892 26.3644 243.376 32.0517 238.104 35.8873C225.646 44.9378 211.62 25.5897 224.053 16.5517L224.305 16.3817C212.766 25.1236 226.131 43.3885 238.003 34.7536C242.853 31.2266 243.508 26.0809 241.782 21.7793Z" fill="#DBDBDB"/>
<path d="M48.6852 112.877C64.4308 124.302 47.5137 147.611 31.7619 136.18C16.01 124.749 32.9334 101.427 48.6852 112.877Z" fill="#DBDBDB"/>
<path d="M47.2113 111.8C62.1947 122.696 45.3218 145.999 30.288 135.103C15.2541 124.207 32.2026 100.891 47.2113 111.8Z" fill="#EBEBEB"/>
<path d="M28.0457 119.005C25.9358 123.596 26.4522 129.284 31.7238 133.113C44.1817 142.163 58.2079 122.822 45.7752 113.784C45.6933 113.727 45.6114 113.664 45.5232 113.614C57.0616 122.349 43.6968 140.614 31.8246 131.986C26.975 128.465 26.32 123.3 28.0457 119.005Z" fill="#DBDBDB"/>
<path d="M41.8515 114.88C41.9653 114.933 42.0538 115.029 42.0984 115.146C42.1431 115.264 42.1404 115.394 42.0909 115.509L41.7696 116.253C42.9161 116.876 43.8503 117.828 44.4527 118.986C44.5084 119.062 44.5439 119.151 44.556 119.245C44.5681 119.338 44.5564 119.433 44.522 119.521C44.4936 119.582 44.4534 119.637 44.4038 119.682C44.3542 119.728 44.2961 119.763 44.2329 119.785C44.1697 119.808 44.1026 119.818 44.0355 119.815C43.9684 119.812 43.9025 119.796 43.8418 119.767C43.7794 119.743 43.7229 119.706 43.6762 119.658C43.6295 119.61 43.5936 119.553 43.5709 119.49C43.0833 118.487 42.3126 117.648 41.354 117.078L39.0992 122.198C41.6185 124.025 42.3239 125.587 41.524 127.382C40.6612 129.321 38.419 129.97 36.095 129.019L35.4651 130.449C35.4133 130.565 35.3176 130.656 35.1989 130.701C35.0802 130.747 34.9482 130.743 34.8322 130.691C34.7161 130.639 34.6253 130.544 34.5798 130.425C34.5343 130.306 34.5379 130.174 34.5897 130.058L35.2195 128.61C33.7376 127.811 32.5666 126.538 31.894 124.994C31.8534 124.923 31.8294 124.844 31.824 124.762C31.8185 124.68 31.8317 124.598 31.8625 124.522C31.9211 124.405 32.0216 124.314 32.1441 124.267C32.2666 124.221 32.4021 124.222 32.5239 124.27C32.5862 124.296 32.6429 124.333 32.6905 124.381C32.7381 124.428 32.7756 124.485 32.801 124.547C33.344 125.922 34.3392 127.07 35.6226 127.803L37.9529 122.589C35.4777 120.756 34.8038 119.244 35.61 117.411C36.4162 115.579 38.6709 114.892 40.932 115.818L41.2406 115.119C41.295 115.011 41.3875 114.926 41.5002 114.882C41.613 114.838 41.7381 114.837 41.8515 114.88ZM38.3434 121.656L40.573 116.656C38.7843 115.9 37.1342 116.441 36.5484 117.758C35.9627 119.074 36.2335 120.031 38.3434 121.656ZM38.652 123.13L36.3973 128.169C38.2426 128.95 39.9054 128.414 40.5289 127.029C41.0894 125.775 40.7934 124.724 38.652 123.13Z" fill="#DBDBDB"/>
<path d="M156.624 11.5509L138.762 46.4305L133.743 38.6585L74.1931 77.1595L62.957 59.7827L122.5 21.288L117.474 13.516L156.624 11.5509Z" fill="#EBEBEB"/>
<path d="M40.4974 74.3127L51.7208 91.6832L50.2092 92.6594L38.9795 75.2889L40.4974 74.3127Z" fill="#EBEBEB"/>
<path d="M48.3577 69.2174L59.5937 86.5942L54.448 89.9197L43.2246 72.5492L48.3577 69.2174Z" fill="#EBEBEB"/>
<path d="M59.4425 62.0564L70.6786 79.4269L62.7365 84.5662L51.5005 67.1894L59.4425 62.0564Z" fill="#EBEBEB"/>
<path d="M113.638 194.313L102.1 216.848L98.8565 211.828L60.4059 236.687L53.144 225.47L91.601 200.605L88.3637 195.585L113.638 194.313Z" fill="#DBDBDB"/>
<path d="M50.8767 226.937L58.1323 238.155L53.0056 241.474L45.75 230.25L50.8767 226.937Z" fill="#DBDBDB"/>
<path d="M43.7229 231.553L40.4009 233.7L47.6544 244.925L50.9765 242.778L43.7229 231.553Z" fill="#DBDBDB"/>
<path d="M38.633 234.848L45.8949 246.071L44.9123 246.701L37.6631 235.478L38.633 234.848Z" fill="#DBDBDB"/>
<path d="M139.046 147.422L124.125 124.327L126.645 122.708L141.578 145.804L139.046 147.422ZM124.982 124.51L139.229 146.553L140.671 145.621L126.424 123.577L124.982 124.51Z" fill="#EBEBEB"/>
<path d="M170.19 127.281L155.264 104.185L232.593 54.1899L225.942 43.8986L277.877 41.3037L254.184 87.5705L247.526 77.2792L170.19 127.281ZM156.133 104.374L170.373 126.418L247.715 76.4163L254.121 86.3171L276.794 41.9776L227.038 44.4969L233.443 54.404L156.133 104.374Z" fill="#EBEBEB"/>
<path d="M144.557 143.851L129.624 120.762L136.829 116.101L151.768 139.197L144.557 143.851ZM130.493 120.951L144.739 142.995L150.893 139.021L136.646 116.977L130.493 120.951Z" fill="#EBEBEB"/>
<path d="M155.308 136.904L140.381 113.803L151.208 106.805L166.141 129.907L155.308 136.904ZM141.25 113.991L155.497 136.035L165.284 129.737L151.037 107.693L141.25 113.991Z" fill="#EBEBEB"/>
<path opacity="0.6" d="M47.3499 260.664C47.3511 261.264 47.1745 261.85 46.8424 262.349C46.5103 262.848 46.0376 263.238 45.4841 263.468C44.9307 263.698 44.3214 263.759 43.7333 263.643C43.1452 263.527 42.6049 263.239 42.1805 262.815C41.7562 262.392 41.4671 261.852 41.3497 261.264C41.2323 260.676 41.2919 260.067 41.521 259.513C41.7501 258.959 42.1384 258.485 42.6367 258.152C43.1351 257.819 43.721 257.641 44.3205 257.641C44.718 257.64 45.1118 257.718 45.4793 257.87C45.8468 258.021 46.1808 258.244 46.4622 258.524C46.7436 258.805 46.9669 259.139 47.1192 259.506C47.2715 259.873 47.3499 260.267 47.3499 260.664Z" fill="#175123"/>
<path opacity="0.6" d="M51.0281 254.889C51.0281 255.18 50.9417 255.465 50.7798 255.708C50.6178 255.95 50.3876 256.139 50.1183 256.251C49.849 256.362 49.5527 256.391 49.2668 256.334C48.9809 256.278 48.7183 256.137 48.5122 255.931C48.3061 255.725 48.1658 255.462 48.1089 255.176C48.052 254.891 48.0812 254.594 48.1928 254.325C48.3043 254.056 48.4932 253.825 48.7356 253.664C48.9779 253.502 49.2629 253.415 49.5543 253.415C49.9452 253.415 50.3201 253.57 50.5965 253.847C50.8729 254.123 51.0281 254.498 51.0281 254.889Z" fill="#175123"/>
<path opacity="0.6" d="M115.736 259.222C115.736 259.514 115.65 259.799 115.488 260.041C115.326 260.283 115.096 260.472 114.826 260.584C114.557 260.695 114.261 260.724 113.975 260.668C113.689 260.611 113.426 260.47 113.22 260.264C113.014 260.058 112.874 259.796 112.817 259.51C112.76 259.224 112.789 258.927 112.901 258.658C113.012 258.389 113.201 258.159 113.444 257.997C113.686 257.835 113.971 257.748 114.262 257.748C114.653 257.748 115.028 257.904 115.304 258.18C115.581 258.456 115.736 258.831 115.736 259.222Z" fill="#175123"/>
<path opacity="0.6" d="M143.782 274.13C144.596 274.13 145.256 273.47 145.256 272.656C145.256 271.842 144.596 271.182 143.782 271.182C142.968 271.182 142.308 271.842 142.308 272.656C142.308 273.47 142.968 274.13 143.782 274.13Z" fill="#175123"/>
<path opacity="0.6" d="M143.02 276.971C143.02 277.437 142.835 277.884 142.505 278.213C142.176 278.543 141.729 278.728 141.263 278.728H31.6737C31.4429 278.728 31.2145 278.682 31.0013 278.594C30.7881 278.506 30.5943 278.376 30.4312 278.213C30.268 278.05 30.1386 277.856 30.0503 277.643C29.962 277.43 29.9165 277.201 29.9165 276.971C29.9165 276.74 29.962 276.511 30.0503 276.298C30.1386 276.085 30.268 275.891 30.4312 275.728C30.5943 275.565 30.7881 275.435 31.0013 275.347C31.2145 275.259 31.4429 275.213 31.6737 275.213C31.8135 275.212 31.953 275.227 32.0894 275.257C32.0891 274.568 32.2943 273.895 32.6789 273.323C33.0634 272.751 33.6098 272.307 34.2482 272.047C34.8865 271.787 35.5878 271.724 36.2624 271.865C36.9369 272.006 37.5541 272.345 38.0349 272.839H38.0664C38.0664 272.625 38.0349 272.411 38.0349 272.209C38.0329 271.095 38.3155 269.998 38.8558 269.024C39.3961 268.05 40.1763 267.229 41.1225 266.641C42.0687 266.052 43.1495 265.715 44.2624 265.661C45.3754 265.607 46.4837 265.838 47.4822 266.333C47.5667 265.29 47.9985 264.306 48.7083 263.538C49.4182 262.77 50.3652 262.263 51.3977 262.097C52.4303 261.93 53.4887 262.115 54.4037 262.622C55.3187 263.128 56.0373 263.927 56.4446 264.891C57.0321 263.953 57.8485 263.18 58.8169 262.644C59.7854 262.109 60.8741 261.829 61.9807 261.83C62.4034 261.83 62.8251 261.87 63.2404 261.949C63.1518 261.446 63.1076 260.936 63.1081 260.425C63.1065 258.729 63.592 257.069 64.507 255.641C65.422 254.214 66.7279 253.079 68.2693 252.373C69.8107 251.666 71.5227 251.417 73.2015 251.655C74.8803 251.894 76.4552 252.61 77.7389 253.718C77.8866 253.43 78.1104 253.189 78.3858 253.02C78.6612 252.851 78.9778 252.761 79.3008 252.76C79.5318 252.761 79.7605 252.806 79.9748 252.892L81.6186 96.6021H91.2738L92.9176 252.892C93.1342 252.807 93.3649 252.762 93.5978 252.76C93.9201 252.761 94.2359 252.851 94.5104 253.02C94.7849 253.189 95.0074 253.43 95.1535 253.718C96.5375 252.532 98.2533 251.803 100.067 251.629C101.881 251.455 103.704 251.845 105.288 252.745C106.872 253.645 108.14 255.012 108.919 256.659C109.697 258.306 109.949 260.154 109.639 261.949C110.055 261.87 110.476 261.83 110.899 261.83C112.006 261.829 113.096 262.109 114.066 262.644C115.035 263.18 115.853 263.953 116.441 264.891C116.826 263.896 117.539 263.062 118.463 262.53C119.387 261.997 120.466 261.797 121.52 261.962C122.573 262.128 123.538 262.65 124.254 263.44C124.97 264.231 125.394 265.243 125.454 266.308C126.453 265.813 127.561 265.582 128.674 265.636C129.787 265.69 130.868 266.027 131.814 266.615C132.76 267.204 133.54 268.024 134.081 268.999C134.621 269.973 134.904 271.07 134.902 272.184C134.914 272.394 134.914 272.604 134.902 272.814C135.382 272.32 136 271.981 136.674 271.84C137.349 271.699 138.05 271.762 138.688 272.022C139.327 272.282 139.873 272.726 140.258 273.298C140.642 273.87 140.847 274.543 140.847 275.232C140.983 275.202 141.123 275.187 141.263 275.188C141.496 275.188 141.726 275.234 141.941 275.324C142.156 275.414 142.351 275.546 142.514 275.712C142.678 275.878 142.807 276.074 142.893 276.29C142.98 276.506 143.023 276.738 143.02 276.971Z" fill="#175123"/>
<path d="M68.5814 53.8246C68.2035 53.8246 54.0955 60.3433 53.2326 76.41C52.4642 91.1793 62.6799 105.205 63.9963 104.273C65.6086 103.14 62.8626 93.938 65.9991 83.4136C67.1139 79.6788 71.9824 76.3659 71.9824 76.3659L68.5814 53.8246Z" fill="#175123"/>
<path opacity="0.1" d="M71.982 76.3659C70.5619 77.3724 69.264 78.5413 68.1149 79.8488C66.0113 75.1567 62.0875 66.3958 59.5557 60.7211C63.6936 55.9345 68.3732 53.7931 68.581 53.7931L71.982 76.3659Z" fill="black"/>
<path d="M104.55 53.8498C104.928 53.8498 119.036 60.3936 119.868 76.4604C120.617 91.2297 110.382 105.237 109.066 104.311C107.454 103.171 110.212 93.9694 107.088 83.4388C105.986 79.7103 101.124 76.3848 101.124 76.3848L104.55 53.8498Z" fill="#175123"/>
<path opacity="0.1" d="M113.62 60.8282C111.063 66.5533 107.133 75.3141 105.054 79.9685C103.889 78.6273 102.57 77.4286 101.124 76.3974L104.55 53.8624C104.764 53.8498 109.475 55.9849 113.62 60.8282Z" fill="black"/>
<path d="M97.2507 90.7762H75.9312C75.9312 90.7762 65.8793 72.7948 67.0696 51.3809C67.6995 40.6739 70.4644 29.9291 73.8276 21.0235C78.4568 8.72304 84.1756 -0.00629481 86.6571 3.40591e-06C89.1386 0.00630163 94.8448 8.72934 99.4677 21.0424C102.806 29.9543 105.583 40.718 106.169 51.4124C107.328 72.8263 97.2507 90.7762 97.2507 90.7762Z" fill="#DBDBDB"/>
<path d="M99.3855 48.6412C99.3843 51.0742 98.6615 53.4523 97.3086 55.4745C95.9557 57.4967 94.0334 59.0723 91.785 60.002C89.5365 60.9316 87.0629 61.1736 84.6769 60.6972C82.2909 60.2209 80.0998 59.0476 78.3807 57.3259C76.6616 55.6041 75.4917 53.4112 75.019 51.0245C74.5463 48.6378 74.7921 46.1645 75.7252 43.9175C76.6583 41.6705 78.2369 39.7507 80.2612 38.4009C82.2855 37.0511 84.6646 36.332 87.0977 36.3344C90.3584 36.3395 93.4838 37.6383 95.7876 39.9457C98.0915 42.2531 99.3855 45.3805 99.3855 48.6412Z" fill="#C7C7C7"/>
<path d="M98.9324 47.3878C98.9311 49.8206 98.2085 52.1984 96.8559 54.2205C95.5033 56.2426 93.5814 57.8182 91.3333 58.748C89.0852 59.6779 86.6119 59.9202 84.2261 59.4444C81.8403 58.9685 79.6492 57.7959 77.9298 56.0748C76.2104 54.3537 75.0401 52.1613 74.5667 49.775C74.0933 47.3887 74.3381 44.9157 75.2703 42.6685C76.2024 40.4214 77.78 38.5011 79.8035 37.1506C81.8269 35.8 84.2055 35.0799 86.6383 35.0811C88.2536 35.0819 89.8529 35.4009 91.345 36.0198C92.837 36.6387 94.1925 37.5455 95.3341 38.6883C96.4757 39.831 97.3811 41.1875 97.9985 42.6802C98.6159 44.1728 98.9332 45.7725 98.9324 47.3878Z" fill="#62CF3A"/>
<path d="M95.1537 47.3752C95.1537 49.0629 94.6529 50.7127 93.7148 52.1156C92.7766 53.5185 91.4432 54.6116 89.8835 55.2563C88.3238 55.901 86.6079 56.0684 84.953 55.7373C83.298 55.4062 81.7786 54.5915 80.587 53.3963C79.3953 52.2012 78.5851 50.6793 78.2589 49.0234C77.9328 47.3675 78.1052 45.6521 78.7545 44.0943C79.4039 42.5365 80.5008 41.2064 81.9065 40.2724C83.3122 39.3384 84.9634 38.8424 86.6511 38.8474C88.908 38.8558 91.0696 39.7577 92.6631 41.3559C94.2565 42.9541 95.1521 45.1184 95.1537 47.3752Z" fill="white"/>
<path d="M95.1535 47.3752C95.1556 48.4326 94.9613 49.4812 94.5803 50.4676L89.7181 55.3299C88.7317 55.7108 87.6831 55.9052 86.6257 55.903C85.8547 55.9048 85.0873 55.7988 84.3457 55.5881L94.87 45.0827C95.0687 45.8303 95.164 46.6017 95.1535 47.3752Z" fill="#EBEBEB"/>
<path d="M87.9037 38.9419L78.2171 48.6286C78.1532 48.2117 78.1216 47.7906 78.1226 47.3689C78.1243 45.1083 79.0234 42.9408 80.6225 41.3429C82.2216 39.745 84.3898 38.8474 86.6504 38.8474C87.07 38.8468 87.489 38.8783 87.9037 38.9419Z" fill="#EBEBEB"/>
<path d="M94.1143 43.2436L82.5571 54.8386C82.3388 54.7177 82.1285 54.5831 81.9272 54.4355L93.7679 42.5949C93.8561 42.8027 93.9883 43.0232 94.1143 43.2436Z" fill="#EBEBEB"/>
<path d="M99.4677 21.0424H73.8276C78.4568 8.74193 84.1756 0.0125956 86.6571 0.0188938C89.1386 0.025192 94.8448 8.72933 99.4677 21.0424Z" fill="#175123"/>
<path d="M78.2431 18.3782C78.2431 18.52 78.2012 18.6585 78.1225 18.7765C78.0439 18.8944 77.9322 18.9864 77.8013 19.041C77.6705 19.0955 77.5265 19.1101 77.3874 19.0829C77.2483 19.0557 77.1203 18.9879 77.0196 18.8881C76.919 18.7883 76.8501 18.661 76.8217 18.5221C76.7933 18.3833 76.8066 18.2391 76.86 18.1078C76.9134 17.9765 77.0044 17.8639 77.1217 17.7843C77.2389 17.7047 77.3771 17.6615 77.5188 17.6602C77.6136 17.6594 77.7077 17.6774 77.7955 17.7131C77.8834 17.7488 77.9633 17.8015 78.0306 17.8683C78.0979 17.9351 78.1514 18.0145 78.1879 18.102C78.2244 18.1895 78.2431 18.2834 78.2431 18.3782Z" fill="white"/>
<path d="M82.8022 18.3782C82.8022 18.5202 82.7601 18.659 82.6812 18.7771C82.6023 18.8952 82.4902 18.9872 82.359 19.0416C82.2278 19.0959 82.0834 19.1101 81.9441 19.0824C81.8049 19.0547 81.6769 18.9863 81.5765 18.8859C81.4761 18.7855 81.4077 18.6576 81.38 18.5183C81.3523 18.379 81.3665 18.2346 81.4209 18.1035C81.4752 17.9723 81.5672 17.8601 81.6853 17.7812C81.8034 17.7023 81.9422 17.6602 82.0842 17.6602C82.2746 17.6602 82.4573 17.7359 82.5919 17.8705C82.7266 18.0052 82.8022 18.1878 82.8022 18.3782Z" fill="white"/>
<path d="M87.3623 18.3845C87.3623 18.5265 87.3202 18.6654 87.2413 18.7834C87.1624 18.9015 87.0502 18.9935 86.919 19.0479C86.7878 19.1022 86.6435 19.1164 86.5042 19.0887C86.3649 19.061 86.237 18.9926 86.1366 18.8922C86.0362 18.7918 85.9678 18.6639 85.9401 18.5246C85.9124 18.3853 85.9266 18.241 85.9809 18.1098C86.0353 17.9786 86.1273 17.8664 86.2454 17.7875C86.3634 17.7086 86.5023 17.6665 86.6443 17.6665C86.8347 17.6665 87.0173 17.7422 87.152 17.8768C87.2866 18.0115 87.3623 18.1941 87.3623 18.3845Z" fill="white"/>
<path d="M91.9223 18.3845C91.9223 18.575 91.8467 18.7576 91.712 18.8922C91.5774 19.0269 91.3947 19.1025 91.2043 19.1025C91.0139 19.1025 90.8313 19.0269 90.6966 18.8922C90.562 18.7576 90.4863 18.575 90.4863 18.3845C90.488 18.1935 90.565 18.0109 90.7007 17.8764C90.8363 17.742 91.0196 17.6665 91.2106 17.6665C91.4 17.6682 91.581 17.7446 91.7143 17.879C91.8475 18.0135 91.9223 18.1952 91.9223 18.3845Z" fill="white"/>
<path d="M96.4887 18.3908C96.4887 18.5334 96.4463 18.6727 96.3668 18.791C96.2873 18.9093 96.1744 19.0013 96.0425 19.0553C95.9106 19.1093 95.7656 19.1227 95.626 19.094C95.4863 19.0652 95.3584 18.9956 95.2586 18.8939C95.1587 18.7922 95.0913 18.6631 95.065 18.523C95.0388 18.3829 95.0548 18.2382 95.1111 18.1072C95.1674 17.9763 95.2613 17.865 95.3811 17.7877C95.5008 17.7103 95.6408 17.6703 95.7833 17.6728C95.971 17.6777 96.1495 17.7553 96.2811 17.8893C96.4127 18.0232 96.4872 18.2031 96.4887 18.3908Z" fill="white"/>
<path d="M78.2114 87.4823C78.2114 87.6243 78.1693 87.7631 78.0904 87.8812C78.0115 87.9993 77.8993 88.0913 77.7682 88.1456C77.637 88.2 77.4926 88.2142 77.3533 88.1865C77.214 88.1588 77.0861 88.0904 76.9857 87.99C76.8853 87.8896 76.8169 87.7616 76.7892 87.6224C76.7615 87.4831 76.7757 87.3387 76.83 87.2075C76.8844 87.0763 76.9764 86.9642 77.0945 86.8853C77.2126 86.8064 77.3514 86.7643 77.4934 86.7643C77.6838 86.7643 77.8664 86.8399 78.0011 86.9746C78.1357 87.1092 78.2114 87.2919 78.2114 87.4823Z" fill="#C7C7C7"/>
<path d="M82.7711 87.4886C82.7711 87.679 82.6955 87.8616 82.5608 87.9963C82.4262 88.1309 82.2435 88.2066 82.0531 88.2066C81.9589 88.2074 81.8654 88.1894 81.7783 88.1536C81.6911 88.1177 81.6121 88.0647 81.5457 87.9978C81.4794 87.9309 81.4271 87.8513 81.392 87.7639C81.3569 87.6764 81.3397 87.5828 81.3414 87.4886C81.3414 87.2982 81.4171 87.1155 81.5517 86.9809C81.6864 86.8462 81.869 86.7706 82.0594 86.7706C82.1537 86.7697 82.2471 86.7878 82.3342 86.8236C82.4214 86.8595 82.5005 86.9124 82.5668 86.9794C82.6332 87.0463 82.6854 87.1258 82.7205 87.2133C82.7556 87.3008 82.7728 87.3944 82.7711 87.4886Z" fill="#C7C7C7"/>
<path d="M87.3374 87.4886C87.3374 87.6306 87.2952 87.7694 87.2164 87.8875C87.1375 88.0055 87.0253 88.0976 86.8941 88.1519C86.7629 88.2063 86.6186 88.2205 86.4793 88.1928C86.34 88.1651 86.2121 88.0967 86.1117 87.9963C86.0113 87.8959 85.9429 87.7679 85.9152 87.6286C85.8875 87.4894 85.9017 87.345 85.956 87.2138C86.0104 87.0826 86.1024 86.9705 86.2205 86.8916C86.3385 86.8127 86.4774 86.7706 86.6194 86.7706C86.8093 86.7722 86.991 86.8484 87.1252 86.9827C87.2595 87.117 87.3357 87.2986 87.3374 87.4886Z" fill="#C7C7C7"/>
<path d="M91.8974 87.4949C91.8974 87.6369 91.8553 87.7757 91.7764 87.8937C91.6975 88.0118 91.5854 88.1039 91.4542 88.1582C91.323 88.2125 91.1786 88.2268 91.0393 88.1991C90.9001 88.1714 90.7721 88.103 90.6717 88.0026C90.5713 87.9021 90.5029 87.7742 90.4752 87.6349C90.4475 87.4957 90.4617 87.3513 90.5161 87.2201C90.5704 87.0889 90.6625 86.9768 90.7805 86.8979C90.8986 86.819 91.0374 86.7769 91.1794 86.7769C91.3699 86.7769 91.5525 86.8525 91.6871 86.9872C91.8218 87.1218 91.8974 87.3044 91.8974 87.4949Z" fill="#C7C7C7"/>
<path d="M96.457 87.4949C96.457 87.6369 96.4149 87.7757 96.336 87.8937C96.2571 88.0118 96.145 88.1039 96.0138 88.1582C95.8826 88.2125 95.7382 88.2268 95.5989 88.1991C95.4596 88.1714 95.3317 88.103 95.2313 88.0026C95.1309 87.9021 95.0625 87.7742 95.0348 87.6349C95.0071 87.4957 95.0213 87.3513 95.0756 87.2201C95.13 87.0889 95.222 86.9768 95.3401 86.8979C95.4582 86.819 95.597 86.7769 95.739 86.7769C95.9294 86.7769 96.112 86.8525 96.2467 86.9872C96.3813 87.1218 96.457 87.3044 96.457 87.4949Z" fill="#C7C7C7"/>
<path d="M95.2853 97.1878L77.94 97.1752L77.1338 90.7636L96.104 90.7825L95.2853 97.1878Z" fill="#175123"/>
<path opacity="0.1" d="M96.104 90.7825L95.7009 93.9001L77.4424 93.2199L77.1338 90.7699L96.104 90.7825Z" fill="black"/>
<path d="M115.207 262.497L112.933 262.919L112.423 265.325L111.913 262.919L109.633 262.497L111.9 261.943L112.423 259.676L112.939 261.943L115.207 262.497Z" fill="#FCFCFC"/>
<path d="M93.0431 243.231L90.7632 243.653L90.253 246.059L89.7429 243.653L87.4629 243.231L89.7365 242.677L90.253 240.409L90.7695 242.677L93.0431 243.231Z" fill="#FCFCFC"/>
<path d="M59.9213 267.076L58.6428 267.309L58.3594 268.651L58.0759 267.309L56.8037 267.076L58.0697 266.767L58.3594 265.495L58.6491 266.767L59.9213 267.076Z" fill="#FCFCFC"/>
<path d="M128.465 271.082L127.186 271.315L126.903 272.656L126.619 271.315L125.347 271.082L126.613 270.767L126.903 269.501L127.193 270.767L128.465 271.082Z" fill="#FCFCFC"/>
<path d="M42.3867 275.786L41.1144 276.019L40.831 277.367L40.5413 276.019L39.269 275.786L40.535 275.478L40.831 274.206L41.1207 275.478L42.3867 275.786Z" fill="#FCFCFC"/>
<path d="M97.7983 274.672L96.526 274.905L96.2426 276.246L95.9592 274.905L94.6807 274.672L95.9529 274.357L96.2426 273.091L96.5323 274.357L97.7983 274.672Z" fill="#FCFCFC"/>
<path d="M88.4775 239.578L87.1989 239.817L86.9155 241.159L86.6321 239.817L85.3599 239.578L86.6258 239.269L86.9155 238.003L87.2052 239.269L88.4775 239.578Z" fill="#FCFCFC"/>
<path d="M131.475 273.985C131.386 273.997 131.304 274.041 131.244 274.109C131.185 274.176 131.152 274.263 131.152 274.354C131.152 274.444 131.185 274.531 131.244 274.599C131.304 274.667 131.386 274.71 131.475 274.722C131.565 274.71 131.647 274.667 131.706 274.599C131.766 274.531 131.798 274.444 131.798 274.354C131.798 274.263 131.766 274.176 131.706 274.109C131.647 274.041 131.565 273.997 131.475 273.985Z" fill="#FCFCFC"/>
<path d="M83.546 234.924C83.4565 234.935 83.3744 234.979 83.3149 235.047C83.2555 235.115 83.2227 235.202 83.2227 235.292C83.2227 235.382 83.2555 235.469 83.3149 235.537C83.3744 235.605 83.4565 235.649 83.546 235.66C83.6354 235.649 83.7175 235.605 83.777 235.537C83.8365 235.469 83.8693 235.382 83.8693 235.292C83.8693 235.202 83.8365 235.115 83.777 235.047C83.7175 234.979 83.6354 234.935 83.546 234.924Z" fill="#FCFCFC"/>
<path d="M52.0357 275.786C51.9463 275.798 51.8642 275.842 51.8047 275.91C51.7452 275.978 51.7124 276.065 51.7124 276.155C51.7124 276.245 51.7452 276.332 51.8047 276.4C51.8642 276.468 51.9463 276.512 52.0357 276.523C52.1251 276.512 52.2073 276.468 52.2667 276.4C52.3262 276.332 52.359 276.245 52.359 276.155C52.359 276.065 52.3262 275.978 52.2667 275.91C52.2073 275.842 52.1251 275.798 52.0357 275.786Z" fill="#FCFCFC"/>
<path d="M75.44 270.71C75.3506 270.722 75.2685 270.766 75.209 270.833C75.1495 270.901 75.1167 270.988 75.1167 271.079C75.1167 271.169 75.1495 271.256 75.209 271.324C75.2685 271.391 75.3506 271.435 75.44 271.447C75.5294 271.435 75.6116 271.391 75.6711 271.324C75.7305 271.256 75.7633 271.169 75.7633 271.079C75.7633 270.988 75.7305 270.901 75.6711 270.833C75.6116 270.766 75.5294 270.722 75.44 270.71Z" fill="#FCFCFC"/>
<path d="M122.236 267.341C122.173 267.35 122.116 267.382 122.075 267.43C122.034 267.478 122.012 267.539 122.012 267.602C122.012 267.665 122.034 267.726 122.075 267.774C122.116 267.822 122.173 267.854 122.236 267.863C122.298 267.854 122.355 267.822 122.396 267.774C122.437 267.726 122.459 267.665 122.459 267.602C122.459 267.539 122.437 267.478 122.396 267.43C122.355 267.382 122.298 267.35 122.236 267.341Z" fill="#FCFCFC"/>
<path d="M89.945 263.429C89.8827 263.439 89.8258 263.471 89.7848 263.519C89.7437 263.567 89.7212 263.628 89.7212 263.691C89.7212 263.754 89.7437 263.815 89.7848 263.863C89.8258 263.911 89.8827 263.942 89.945 263.952C90.0074 263.942 90.0642 263.911 90.1052 263.863C90.1463 263.815 90.1688 263.754 90.1688 263.691C90.1688 263.628 90.1463 263.567 90.1052 263.519C90.0642 263.471 90.0074 263.439 89.945 263.429Z" fill="#FCFCFC"/>
<path d="M66.32 258.322C66.2577 258.331 66.2008 258.363 66.1598 258.411C66.1187 258.459 66.0962 258.52 66.0962 258.583C66.0962 258.646 66.1187 258.707 66.1598 258.755C66.2008 258.803 66.2577 258.835 66.32 258.844C66.3824 258.835 66.4392 258.803 66.4802 258.755C66.5213 258.707 66.5438 258.646 66.5438 258.583C66.5438 258.52 66.5213 258.459 66.4802 258.411C66.4392 258.363 66.3824 258.331 66.32 258.322Z" fill="#FCFCFC"/>
<path d="M106.742 259.386C106.566 259.403 106.402 259.484 106.283 259.615C106.163 259.746 106.097 259.917 106.097 260.094C106.097 260.272 106.163 260.442 106.283 260.573C106.402 260.704 106.566 260.786 106.742 260.803C106.918 260.786 107.082 260.704 107.201 260.573C107.321 260.442 107.387 260.272 107.387 260.094C107.387 259.917 107.321 259.746 107.201 259.615C107.082 259.484 106.918 259.403 106.742 259.386Z" fill="#FCFCFC"/>
<path d="M69.6644 255.922C69.488 255.939 69.3241 256.02 69.2049 256.151C69.0856 256.282 69.0195 256.453 69.0195 256.63C69.0195 256.808 69.0856 256.978 69.2049 257.109C69.3241 257.24 69.488 257.322 69.6644 257.339C69.8407 257.322 70.0046 257.24 70.1238 257.109C70.2431 256.978 70.3092 256.808 70.3092 256.63C70.3092 256.453 70.2431 256.282 70.1238 256.151C70.0046 256.02 69.8407 255.939 69.6644 255.922Z" fill="#FCFCFC"/>
<path d="M148.569 236.737H127.003V278.728H148.569V236.737Z" fill="#175123"/>
<path opacity="0.6" d="M148.569 236.737H127.003V278.728H148.569V236.737Z" fill="white"/>
<path d="M118.854 278.721H127.003V236.731H118.854V278.721Z" fill="#175123"/>
<path opacity="0.4" d="M118.854 278.721H127.003V236.731H118.854V278.721Z" fill="white"/>
<path d="M190.955 208.654H169.39V278.728H190.955V208.654Z" fill="#175123"/>
<path opacity="0.6" d="M190.955 208.654H169.39V278.728H190.955V208.654Z" fill="white"/>
<path d="M161.24 278.721H169.39V208.647H161.24V278.721Z" fill="#175123"/>
<path opacity="0.4" d="M161.24 278.721H169.39V208.647H161.24V278.721Z" fill="white"/>
<path d="M233.342 173.346H211.777V278.721H233.342V173.346Z" fill="#175123"/>
<path opacity="0.6" d="M233.342 173.346H211.777V278.721H233.342V173.346Z" fill="white"/>
<path d="M203.627 278.728H211.777V173.352H203.627V278.728Z" fill="#175123"/>
<path opacity="0.4" d="M203.627 278.728H211.777V173.352H203.627V278.728Z" fill="white"/>
<path d="M275.723 130.852H254.158V278.721H275.723V130.852Z" fill="#175123"/>
<path opacity="0.6" d="M275.723 130.852H254.158V278.721H275.723V130.852Z" fill="white"/>
<path d="M246.014 278.728H254.164L254.164 130.858H246.014L246.014 278.728Z" fill="#175123"/>
<path opacity="0.4" d="M246.014 278.728H254.164L254.164 130.858H246.014L246.014 278.728Z" fill="white"/>
<path d="M247.57 154.451L133.869 216.917L89.1261 170.883L0 210.461L0.100772 165.227L97.2004 121.871L143.089 168.433L228.663 122.746L247.57 154.451Z" fill="#175123"/>
<path d="M248.647 181.319L290.959 107.996V96.5958L206.304 96.6021V108.002L248.647 181.319Z" fill="#175123"/>
<g opacity="0.1">
<path d="M247.57 154.451L133.869 216.917L89.1261 170.883L0 210.461L0.100772 165.228L97.2004 121.871L143.089 168.433L228.663 122.746L247.57 154.451Z" fill="black"/>
<path d="M248.647 181.319L290.959 107.996V96.5958L206.304 96.6021V108.002L248.647 181.319Z" fill="black"/>
</g>
<path d="M247.57 143.058L133.869 205.517L89.1261 159.484L0 199.062L0.100772 153.834L97.2004 110.477L143.089 157.034L228.663 111.346L247.57 143.058Z" fill="#175123"/>
<path d="M248.647 169.92L290.959 96.5958L206.304 96.6021L248.647 169.92Z" fill="#175123"/>
<path d="M163.974 237.392C162.443 236.454 131.223 199.15 130.933 196.977C130.82 196.152 135.972 191.308 142.396 185.59C143.782 184.361 145.218 183.07 146.685 181.811C156.196 173.529 166.481 164.963 166.481 164.963L187.435 189.854L167.066 206.015L162.595 209.567C162.595 209.567 168.162 229.192 168.225 231.611C168.288 234.029 165.498 238.331 163.974 237.392Z" fill="#EB9481"/>
<path d="M163.968 237.386C162.444 236.454 131.217 199.156 130.934 196.983C130.833 196.253 134.838 192.385 140.186 187.567C140.891 190.464 156.756 218.429 163.684 223.051C166.518 224.941 164.314 215.846 164.232 215.462C165.876 221.445 168.175 230.055 168.213 231.611C168.282 234.029 165.498 238.331 163.968 237.386Z" fill="#263238"/>
<path d="M164.465 216.23C164.465 216.23 162.097 211.954 154.521 212.275L164.465 216.23Z" fill="#263238"/>
<path d="M220.375 156.826C216.042 169.422 176.489 200.428 171.929 203.974L170.89 204.787L148.556 179.109L148.94 178.775L170.928 160.202C170.928 160.202 140.066 166.279 129.825 146.345C125.757 138.41 131.853 120.384 131.853 120.384L164.749 120.97C164.749 120.97 164.566 126.588 169.158 126.834C184.941 127.696 197.374 128.175 205.461 130.153C215.872 132.704 224.355 145.224 220.375 156.826Z" fill="#263238"/>
<path d="M170.033 126.878C180.211 127.256 190.395 127.759 200.51 129.114C201.769 129.296 203.029 129.498 204.289 129.743C205.556 129.976 206.803 130.309 208.017 130.738C208.621 130.979 209.204 131.267 209.762 131.601C210.316 131.916 210.864 132.231 211.393 132.622C212.462 133.337 213.475 134.133 214.423 135.002C216.344 136.725 217.968 138.753 219.228 141.005C220.483 143.271 221.281 145.762 221.577 148.336C221.713 149.621 221.725 150.915 221.615 152.203C221.615 152.524 221.552 152.833 221.514 153.16C221.477 153.488 221.426 153.79 221.363 154.124C221.225 154.765 221.044 155.396 220.822 156.013C219.85 158.396 218.58 160.645 217.043 162.708C213.998 166.812 210.628 170.664 206.965 174.228C203.35 177.824 199.59 181.263 195.742 184.601C191.894 187.939 187.932 191.138 183.958 194.313C187.882 191.069 191.768 187.775 195.559 184.38C199.351 180.986 203.117 177.528 206.657 173.906C210.264 170.328 213.595 166.482 216.621 162.4C218.121 160.367 219.359 158.154 220.305 155.812C220.514 155.225 220.685 154.626 220.815 154.017C220.927 153.402 221.007 152.782 221.055 152.159C221.159 150.9 221.142 149.635 221.004 148.38C220.73 145.875 219.961 143.45 218.743 141.244C217.522 139.039 215.948 137.05 214.082 135.355C213.156 134.499 212.166 133.714 211.122 133.006C210.6 132.647 210.064 132.313 209.516 131.998C208.984 131.675 208.426 131.397 207.847 131.167C206.658 130.748 205.439 130.42 204.201 130.184C202.941 129.932 201.681 129.718 200.453 129.554C195.415 128.799 190.376 128.295 185.281 127.911C180.185 127.526 175.141 127.142 170.033 126.878Z" fill="#37474F"/>
<path d="M183.02 149.085C181.96 149.887 180.95 150.753 179.997 151.68C178.951 152.593 177.9 153.494 176.848 154.407H176.816C177.024 154.124 177.232 153.834 177.446 153.551C178.183 152.581 178.825 151.554 179.644 150.653C179.695 150.597 179.613 150.515 179.562 150.572C178.725 151.466 177.799 152.285 177.043 153.248C176.69 153.702 176.344 154.168 176.016 154.64C175.834 154.898 175.651 155.163 175.481 155.427C175.406 155.547 175.317 155.679 175.248 155.812C174.776 156.24 174.31 156.668 173.856 157.109C172.842 158.085 171.904 159.15 170.883 160.113C170.833 160.164 170.915 160.239 170.972 160.189C171.986 159.295 173.088 158.488 174.121 157.607C175.154 156.725 176.174 155.761 177.182 154.81C178.189 153.859 179.121 152.921 180.104 152.007C181.151 151.11 182.141 150.148 183.07 149.129C183.102 149.117 183.064 149.06 183.02 149.085Z" fill="#37474F"/>
<path d="M174.895 199.332C174.328 198.532 173.686 197.764 173.075 196.996C172.464 196.227 171.859 195.478 171.242 194.722C169.982 193.179 168.723 191.655 167.413 190.124C164.837 187.063 162.217 184.034 159.603 180.998C158.135 179.298 156.636 177.629 155.156 175.96C155.156 175.96 155.068 175.96 155.093 176.004C157.537 179.102 160 182.189 162.513 185.25C165.026 188.31 167.633 191.403 170.272 194.426C171.003 195.266 171.746 196.106 172.502 196.945C173.257 197.783 174.007 198.646 174.819 199.465C174.857 199.421 174.926 199.389 174.895 199.332Z" fill="#37474F"/>
<path d="M136.01 122.746C135.048 125.5 134.455 128.37 134.246 131.28C134.004 134.179 134.31 137.098 135.147 139.883C136.017 142.657 137.654 145.127 139.871 147.007C142.121 148.828 144.761 150.106 147.586 150.742C150.408 151.426 153.289 151.835 156.189 151.963C159.096 152.107 162.007 152.097 164.912 151.932C170.728 151.621 176.515 150.907 182.233 149.797L182.447 149.759L182.516 149.948C182.764 150.688 182.873 151.467 182.837 152.247C182.811 153.017 182.662 153.778 182.396 154.502C182.133 155.22 181.775 155.9 181.332 156.523C180.861 157.117 180.35 157.677 179.801 158.199C177.647 160.271 175.393 162.192 173.106 164.106C170.82 166.021 168.528 167.885 166.178 169.775C163.829 171.664 161.524 173.472 159.175 175.292C161.484 173.424 163.779 171.534 166.059 169.624C168.339 167.734 170.612 165.807 172.867 163.873C175.122 161.94 177.358 159.981 179.461 157.903C179.985 157.393 180.473 156.848 180.922 156.271C181.331 155.685 181.665 155.051 181.918 154.382C182.415 153.034 182.452 151.559 182.025 150.187L182.308 150.339C176.568 151.479 170.755 152.214 164.912 152.537C161.988 152.694 159.057 152.694 156.133 152.537C153.199 152.4 150.286 151.978 147.435 151.277C144.543 150.621 141.847 149.289 139.568 147.391C137.318 145.422 135.676 142.853 134.832 139.984C134.015 137.156 133.756 134.195 134.07 131.267C134.335 128.353 134.987 125.488 136.01 122.746Z" fill="#37474F"/>
<path d="M149.948 124.182C149.45 125.662 148.864 127.123 148.241 128.559C147.746 129.88 147.004 131.094 146.055 132.137C145.068 133.023 143.889 133.67 142.61 134.026C141.873 134.261 141.122 134.453 140.362 134.599C139.588 134.71 138.824 134.878 138.075 135.103C138.045 135.114 138.019 135.134 138 135.161C137.982 135.187 137.972 135.219 137.972 135.251C137.972 135.283 137.982 135.315 138 135.341C138.019 135.368 138.045 135.388 138.075 135.399C138.9 135.5 139.733 135.5 140.557 135.399C141.354 135.328 142.144 135.193 142.919 134.996C144.336 134.632 145.636 133.912 146.698 132.905C147.713 131.782 148.468 130.449 148.908 129C149.478 127.456 149.9 125.862 150.168 124.239C150.176 124.209 150.171 124.178 150.156 124.152C150.14 124.126 150.115 124.108 150.086 124.1C150.057 124.093 150.026 124.097 150 124.112C149.974 124.128 149.955 124.153 149.948 124.182Z" fill="#37474F"/>
<path d="M154.256 73.6073C153.844 73.6787 153.45 73.8307 153.097 74.0545C151.491 75.0496 150.899 76.9768 150.71 78.7466C150.515 80.6361 150.748 82.7019 149.929 84.4717C149.634 85.1815 149.093 85.7608 148.405 86.103C148.012 86.24 147.594 86.2918 147.179 86.2549C146.764 86.2179 146.362 86.0932 145.999 85.8888C145.206 85.5235 144.343 84.9126 143.417 85.1078C143.047 85.2156 142.707 85.4093 142.426 85.673C142.145 85.9368 141.93 86.2632 141.798 86.6257C141.017 88.4144 141.912 90.455 141.893 92.2941C141.874 94.2844 141.255 96.2227 140.117 97.8554C139.043 99.3768 137.548 100.55 135.815 101.231C134.975 101.568 134.09 101.78 133.189 101.861C132.181 101.949 131.173 101.823 130.165 101.861C129.683 101.845 129.202 101.929 128.753 102.107C128.304 102.286 127.897 102.556 127.558 102.9C127.079 103.486 126.714 106.264 128.414 109.243C128.534 109.457 128.144 109.658 127.942 109.488C127.549 109.168 127.178 108.821 126.834 108.449C125.396 106.93 124.34 105.091 123.751 103.084C123.162 101.077 123.057 98.9596 123.445 96.9044C123.889 94.6989 124.866 92.6358 126.292 90.8959C127.131 89.9683 127.894 88.9741 128.572 87.9232C129.095 86.9545 129.378 85.8746 129.397 84.774C129.479 82.6641 129.057 80.5668 129.504 78.4758C129.927 76.6096 130.808 74.8781 132.067 73.4372C133.364 71.9578 134.963 70.7752 136.758 69.9698C138.552 69.1644 140.499 68.7553 142.466 68.7703C146.377 68.7892 154.477 73.5695 154.256 73.6073Z" fill="#263238"/>
<path d="M154.124 73.6325C153.327 73.8274 152.584 74.1999 151.951 74.7221C151.412 75.2344 151.009 75.873 150.779 76.5801C150.238 78.1546 150.383 79.8047 150.471 81.436C150.559 82.9665 150.565 84.5851 149.734 85.9392C149.387 86.5293 148.88 87.0095 148.273 87.3248C147.934 87.4748 147.568 87.5564 147.198 87.565C146.827 87.5737 146.458 87.5092 146.112 87.3752C144.809 86.9343 143.303 85.9707 141.937 86.8021C140.57 87.6334 140.633 89.4662 140.627 90.814C140.627 94.108 141.086 98.3719 138.057 100.608C136.421 101.665 134.554 102.313 132.615 102.497C131.274 102.686 129.573 102.913 128.836 104.179C128.836 104.223 128.887 104.261 128.912 104.179C129.75 102.856 131.488 102.919 132.867 102.787C134.512 102.653 136.116 102.204 137.591 101.464C139.04 100.683 140.125 99.3645 140.614 97.7925C141.087 96.1766 141.276 94.4911 141.175 92.8106C141.175 91.9477 141.124 91.0849 141.131 90.222C141.089 89.433 141.227 88.645 141.534 87.9169C141.699 87.5667 141.97 87.278 142.31 87.0923C142.65 86.9067 143.039 86.8337 143.423 86.8839C144.211 87.0392 144.977 87.2909 145.703 87.6334C146.365 87.9108 147.093 87.9938 147.8 87.8728C148.368 87.7332 148.89 87.4514 149.318 87.054C150.272 86.1279 150.844 84.8789 150.924 83.5522C151.088 81.7005 150.635 79.8425 150.836 77.9909C150.849 77.0132 151.186 76.0675 151.795 75.3025C152.404 74.5375 153.25 73.9965 154.199 73.7647C154.204 73.7511 154.206 73.7366 154.205 73.7222C154.203 73.7078 154.199 73.6939 154.192 73.6814C154.185 73.6688 154.175 73.658 154.163 73.6495C154.151 73.6411 154.138 73.6353 154.124 73.6325Z" fill="#263238"/>
<path d="M141.13 67.6429C137.137 67.5673 133.478 69.9858 131.507 73.368C130.424 75.2703 129.811 77.4036 129.718 79.5906C129.605 81.6249 129.775 83.7222 129.22 85.7125C128.59 87.9105 126.896 89.3843 125.441 91.0471C124.278 92.3954 123.419 93.9786 122.922 95.6889C121.975 99.0216 122.382 102.594 124.056 105.627C124.268 106.01 124.501 106.38 124.755 106.736C124.755 106.78 124.856 106.736 124.824 106.692C123.881 105.254 123.243 103.638 122.948 101.944C122.654 100.25 122.709 98.5133 123.111 96.8414C123.478 95.1965 124.179 93.6445 125.171 92.2815C126.399 90.6062 128.112 89.3088 129.12 87.4697C130.064 85.7377 130.152 83.6907 130.171 81.8013C130.171 79.6977 130.234 77.6256 130.965 75.6227C131.612 73.7592 132.737 72.0986 134.229 70.8075C135.72 69.5163 137.524 68.64 139.461 68.2664C143.87 67.5232 147.989 69.7024 151.497 72.1398L152.895 73.1223C152.946 73.1601 153.015 73.0845 152.958 73.0467C149.57 70.3826 145.665 67.7563 141.13 67.6429Z" fill="#263238"/>
<path d="M155.056 71.3777C154.763 71.2214 154.434 71.1449 154.103 71.1559C153.771 71.167 153.448 71.2652 153.166 71.4407C152.864 71.7808 152.663 75.2952 153.28 75.9187C153.897 76.5423 155.201 75.5786 155.201 75.5786L155.056 71.3777Z" fill="#175123"/>
<path d="M160.895 86.8839C166.324 84.0749 182.176 75.5472 183.064 74.8103C183.952 74.0734 200.926 58.0759 203.282 55.2858C204.951 53.3207 216.344 68.8081 214.795 70.4393C211.173 74.2182 200.233 84.4843 194.64 88.1121C190.055 91.0723 167.703 94.7819 161.077 95.1346C154.451 95.4873 151.97 91.5005 160.895 86.8839Z" fill="#EB9481"/>
<path d="M222.151 64.3174C220.123 67.5673 213.378 72.5933 211.28 73.1727C209.183 73.7521 200.271 62.5728 200.8 60.4062C201.329 58.2396 208.988 47.8098 212.697 46.5501C216.407 45.2905 224.267 60.9542 222.151 64.3174Z" fill="#EB9481"/>
<path d="M207.419 49.6614C208.383 51.4501 209.8 50.5621 209.8 50.5621C209.8 50.5621 206.726 53.0247 207.501 55.1283C208.276 57.2319 211.122 55.6888 211.33 55.5881C211.166 55.7203 208.402 58.0507 209.397 60.085C210.392 62.1193 213.062 60.2299 213.226 60.085C213.113 60.255 211.651 62.5602 212.766 63.9269C214.656 66.2887 218.579 60.507 221.011 60.148C221.011 60.148 222.094 64.1977 222.151 64.3048C222.151 64.3048 225.98 58.8883 225.3 55.6385C225.208 55.1637 224.957 54.7345 224.588 54.4218C224.219 54.1092 223.755 53.9318 223.272 53.919C223.272 53.919 224.701 52.3067 223.964 50.6818C223.587 49.8504 221.911 49.7181 221.911 49.7181C222.215 49.3361 222.408 48.8779 222.469 48.3936C222.53 47.9094 222.457 47.4176 222.258 46.9721C221.666 45.851 220.078 45.8888 220.078 45.8888C220.078 45.8888 226.887 40.3212 225.633 38.3687C223.48 35.0055 209.586 47.7405 207.891 47.3626C207.003 47.1799 207.003 48.8616 207.419 49.6614Z" fill="#EB9481"/>
<path d="M219.858 45.8699C219.89 45.8699 219.858 45.8133 219.858 45.8133C216.064 46.3459 212.521 48.0196 209.699 50.6125C209.611 50.6944 209.491 51.2423 209.598 51.1604C212.156 48.9435 216.079 47.0351 219.858 45.8699Z" fill="#263238"/>
<path d="M221.962 49.6866C221.999 49.6866 221.962 49.6111 221.962 49.6174C217.784 50.2427 213.968 52.3428 211.204 55.5377C211.11 55.6511 211.141 55.8463 211.261 55.7203C213.213 53.6419 218.598 50.7133 221.962 49.6866Z" fill="#263238"/>
<path d="M213.119 60.3999C215.853 57.3075 219.298 55.3991 223.127 53.9442C223.171 53.9442 223.127 53.8561 223.096 53.8624C221.03 54.0639 218.687 55.2417 216.948 56.3124C215.31 57.2765 213.953 58.6533 213.012 60.3054C212.974 60.3747 213.062 60.4692 213.119 60.3999Z" fill="#263238"/>
<path d="M209.731 50.5558C209.63 50.6566 210.071 50.7133 209.97 50.8203C208.881 51.9666 207.023 54.1206 207.753 55.2291C208.345 56.1108 209.939 55.9282 210.524 55.6196L211.992 54.8449L210.883 56.1045C210.385 56.6502 209.978 57.2735 209.68 57.9499C209.525 58.2562 209.436 58.5919 209.42 58.9349C209.404 59.278 209.46 59.6206 209.586 59.9401C209.703 60.2371 209.92 60.4842 210.199 60.6392C210.478 60.7943 210.802 60.8477 211.116 60.7904C211.814 60.6529 212.465 60.3384 213.006 59.8772L214.562 58.6616L213.497 60.3117C213.201 60.7706 212.966 61.266 212.798 61.7855C212.616 62.2706 212.581 62.7985 212.697 63.3034C212.761 63.5284 212.886 63.7312 213.058 63.8892C213.231 64.0471 213.444 64.154 213.673 64.1977C214.2 64.2193 214.722 64.0904 215.179 63.8261C216.171 63.2701 217.118 62.6384 218.013 61.9367C218.479 61.5966 218.945 61.2502 219.43 60.929C219.898 60.5801 220.435 60.3333 221.005 60.2047C220.461 60.3936 219.959 60.6843 219.525 61.0612C219.071 61.4139 218.636 61.7918 218.196 62.1697C217.332 62.9534 216.395 63.6535 215.399 64.2607C214.865 64.6011 214.244 64.7784 213.61 64.7709C213.267 64.7286 212.943 64.5869 212.679 64.3631C212.415 64.1393 212.222 63.8432 212.124 63.5112C211.955 62.889 211.979 62.23 212.193 61.6218C212.37 61.0382 212.624 60.481 212.949 59.9653L213.434 60.3999C212.801 60.9558 212.032 61.334 211.205 61.4958C210.741 61.5796 210.263 61.4947 209.857 61.2565C209.468 61.0147 209.16 60.6614 208.975 60.2425C208.815 59.838 208.743 59.4043 208.764 58.9699C208.785 58.5356 208.897 58.1106 209.095 57.7232C209.428 56.9812 209.886 56.3017 210.449 55.714L210.808 56.1738C210.052 56.5454 208.289 56.9359 207.205 55.6888C206.04 53.7994 209.151 51.0219 209.731 50.5558Z" fill="#263238"/>
<path d="M200.8 60.4062C200.8 60.4062 200.982 49.8126 203.42 47.18C205.857 44.5473 213.667 46.0148 216.432 47.0036C220.242 48.364 218.882 50.9652 216.772 51.5635C214.335 52.2563 210.474 52.0359 210.216 52.0233C210.216 52.0233 212.886 57.6287 210.436 61.4328C207.986 65.2369 200.8 60.4062 200.8 60.4062Z" fill="#EB9481"/>
<path d="M210.801 45.8258C212.408 45.914 214.002 46.1544 215.563 46.5438C216.715 46.8587 218.082 47.2303 218.794 48.3262C220.765 52.5145 212.653 52.735 210.172 52.3067L210.455 51.891C211.171 53.2694 211.582 54.7861 211.658 56.3376C211.744 57.8678 211.45 59.3955 210.801 60.7841C211.042 60.073 211.207 59.3383 211.293 58.5923C211.537 56.1706 210.977 53.7357 209.699 51.6643C211.441 51.91 213.21 51.8909 214.946 51.6076C215.712 51.5122 216.464 51.3196 217.182 51.0345C218.775 50.348 219.071 48.8364 217.585 47.8035C215.575 46.6131 213.094 46.2604 210.801 45.8006V45.8258Z" fill="#263238"/>
<path d="M213.106 73.9096L199.194 57.6035C199.194 57.6035 183.448 74.3379 182.075 74.9236C180.702 75.5094 161.77 85.3913 157.254 88.2192C152.738 91.0471 152.215 96.0919 163.426 95.248C174.637 94.404 188.235 91.0912 192.908 89.6867C196.674 88.5404 213.106 73.9096 213.106 73.9096Z" fill="#455A64"/>
<path d="M213.1 73.9096C213.1 73.9096 196.674 88.5404 192.908 89.6929C186.465 91.5111 179.923 92.9578 173.314 94.0261C170.001 94.5678 166.626 95.0149 163.426 95.2543C152.19 96.0919 152.719 91.0345 157.26 88.2255C157.783 87.8979 158.52 87.4697 159.37 86.9658C165.933 83.1869 180.853 75.4275 182.044 74.911C183.423 74.3253 199.162 57.5909 199.162 57.5909L213.1 73.9096Z" fill="#455A64"/>
<path d="M208.131 76.1958C207.576 75.6668 203.312 70.3448 202.405 69.167C201.499 67.9893 197.77 63.2089 196.939 61.9178C196.907 61.8611 196.976 61.7981 197.02 61.8485C198.079 62.957 201.858 67.7625 202.802 68.9466C203.747 70.1307 207.841 75.4841 208.219 76.1392C208.25 76.1958 208.168 76.2273 208.131 76.1958Z" fill="#263238"/>
<path opacity="0.1" d="M173.314 94.0261C170.001 94.5678 166.626 95.0149 163.426 95.2543C152.19 96.0919 152.719 91.0345 157.26 88.2254C157.783 87.8979 158.52 87.4697 159.37 86.9658L173.314 94.0261Z" fill="black"/>
<path d="M129.391 123.382L170.531 126.204L167.948 113.733C169.111 112.235 169.93 110.499 170.347 108.648C170.764 106.798 170.768 104.879 170.361 103.026C169.567 99.3544 165.158 93.6671 162.469 90.0645C155.912 81.2911 149.633 84.774 147.58 86.8398C139.745 94.7378 129.391 123.382 129.391 123.382Z" fill="#EBEBEB"/>
<path d="M150.88 84.667C150.88 84.667 154.363 95.5944 155.812 98.1263C157.26 100.658 161.675 105.287 161.675 105.287C161.675 105.287 162.544 98.9891 162.192 95.3488C161.839 91.7084 159.043 86.3927 159.043 86.3927C159.841 86.869 160.548 87.4856 161.127 88.2129C164.434 91.9477 170.102 99.2474 170.789 104.078C171.045 105.752 170.967 107.46 170.558 109.103C170.15 110.747 169.419 112.293 168.408 113.651L172.281 128.704L167.759 129.964L164.371 126.613L163.697 130.487L126.456 124.151L132.47 114.111C132.47 114.111 141.363 94.1584 144.708 89.863C148.525 84.9504 150.88 84.667 150.88 84.667Z" fill="#455A64"/>
<path d="M156.97 112.411C158.738 112.339 160.509 112.4 162.267 112.593C163.143 112.7 164.006 112.851 164.868 113.015C165.303 113.097 165.731 113.166 166.166 113.236C166.616 113.32 167.075 113.347 167.533 113.318C167.541 113.318 167.549 113.321 167.555 113.327C167.561 113.333 167.564 113.341 167.564 113.349C167.564 113.357 167.561 113.365 167.555 113.371C167.549 113.377 167.541 113.381 167.533 113.381C167.106 113.455 166.674 113.501 166.241 113.519C165.82 113.526 165.399 113.5 164.982 113.444C164.094 113.343 163.212 113.204 162.324 113.091C160.541 112.87 158.753 112.65 156.951 112.555C156.876 112.549 156.876 112.411 156.97 112.411Z" fill="#263238"/>
<path d="M152.845 114.514C154.268 114.176 155.708 113.92 157.16 113.746C157.884 113.664 158.608 113.62 159.339 113.595H160.384C160.768 113.595 161.153 113.645 161.537 113.639C161.575 113.639 161.587 113.702 161.537 113.702C161.178 113.702 160.813 113.796 160.454 113.834L159.37 113.941C158.646 114.017 157.922 114.099 157.197 114.168C155.742 114.306 154.3 114.458 152.852 114.646C152.782 114.64 152.776 114.527 152.845 114.514Z" fill="#263238"/>
<path d="M150.691 84.9063C150.13 87.7405 149.507 90.5747 148.883 93.3774L148.745 93.1318C150.401 93.6608 152.045 94.2276 153.689 94.7756L153.972 94.8638L153.834 95.1283C153.28 96.2053 152.732 97.2823 152.158 98.3467L152.108 98.0381C153.796 99.6693 155.509 101.275 157.147 102.938C158.784 104.601 160.491 106.245 162.122 107.933C160.352 106.39 158.608 104.783 156.876 103.222C155.144 101.66 153.437 100.016 151.718 98.4097L151.573 98.2837L151.667 98.101C152.215 97.0241 152.788 95.966 153.355 94.8953L153.5 95.2543C151.856 94.6748 150.212 94.1206 148.581 93.5285L148.398 93.4593L148.449 93.2829C149.192 90.4865 149.91 87.6901 150.691 84.9063Z" fill="#263238"/>
<path d="M159.88 87.0729C160.762 88.0869 161.373 88.8112 162.229 89.8504C163.086 90.8896 163.942 91.9162 164.748 92.9995L164.918 93.2136L164.679 93.3522L162.884 94.341L162.947 93.9505C163.627 94.7063 164.314 95.4495 164.975 96.2242L165.07 96.325L165.038 96.4509C164.572 98.3404 164.144 100.305 163.646 102.22C163.149 104.135 162.676 106.056 162.135 107.958C162.481 106.005 162.872 104.072 163.275 102.132C163.678 100.192 164.112 98.2711 164.534 96.3376L164.597 96.5643C163.911 95.8211 163.249 95.0464 162.582 94.2843L162.368 94.045L162.651 93.9001L164.459 92.9365L164.389 93.2892C163.558 92.2311 162.777 91.1415 161.971 90.0708C161.165 89.0001 160.655 88.1688 159.88 87.0729Z" fill="#263238"/>
<path d="M162.154 107.933C162.355 108.89 162.557 109.822 162.727 110.798C162.897 111.775 163.073 112.688 163.237 113.683V113.733C163.193 115.849 164.497 124.547 164.371 126.664C164.371 124.541 162.815 115.837 162.903 113.721V113.733C162.752 112.77 162.614 111.806 162.494 110.836C162.374 109.866 162.261 108.903 162.154 107.933Z" fill="#263238"/>
<path d="M161.467 110.427C161.458 110.609 161.377 110.78 161.242 110.902C161.106 111.024 160.928 111.088 160.746 111.079C160.564 111.069 160.393 110.988 160.271 110.853C160.148 110.718 160.085 110.539 160.094 110.357C160.099 110.251 160.128 110.148 160.178 110.054C160.228 109.96 160.299 109.879 160.384 109.816C160.492 109.741 160.619 109.699 160.75 109.694C160.882 109.689 161.012 109.721 161.125 109.787C161.239 109.853 161.331 109.95 161.392 110.067C161.452 110.183 161.478 110.315 161.467 110.446V110.427ZM161.467 110.427C161.468 110.356 161.454 110.286 161.424 110.222C161.395 110.157 161.351 110.1 161.297 110.055C161.245 110.018 161.185 109.992 161.122 109.979C161.06 109.966 160.995 109.966 160.932 109.979C160.844 110.007 160.767 110.061 160.712 110.135C160.657 110.208 160.626 110.297 160.623 110.389C160.615 110.48 160.636 110.571 160.684 110.65C160.732 110.728 160.803 110.789 160.888 110.823C160.949 110.844 161.014 110.851 161.078 110.844C161.142 110.837 161.203 110.818 161.259 110.786C161.319 110.746 161.369 110.692 161.405 110.63C161.441 110.568 161.462 110.498 161.467 110.427Z" fill="#263238"/>
<path d="M161.971 116.599C161.959 116.755 161.894 116.901 161.788 117.016C161.682 117.13 161.54 117.205 161.385 117.229C161.288 117.242 161.189 117.234 161.095 117.207C161.001 117.18 160.913 117.134 160.837 117.071C160.758 117 160.695 116.913 160.654 116.814C160.613 116.716 160.595 116.61 160.6 116.503C160.605 116.397 160.635 116.293 160.686 116.2C160.737 116.106 160.808 116.025 160.894 115.963C160.975 115.908 161.067 115.87 161.163 115.852C161.26 115.833 161.359 115.835 161.455 115.856C161.616 115.897 161.756 115.995 161.851 116.131C161.946 116.268 161.988 116.434 161.971 116.599ZM161.971 116.599C161.975 116.528 161.962 116.457 161.933 116.392C161.903 116.327 161.858 116.271 161.801 116.227C161.751 116.189 161.692 116.162 161.63 116.148C161.568 116.135 161.504 116.137 161.442 116.152C161.355 116.179 161.278 116.232 161.222 116.304C161.166 116.376 161.133 116.464 161.128 116.555C161.124 116.646 161.147 116.737 161.195 116.815C161.243 116.892 161.314 116.953 161.398 116.989C161.458 117.011 161.522 117.019 161.585 117.012C161.648 117.006 161.709 116.985 161.763 116.952C161.823 116.913 161.873 116.861 161.909 116.8C161.945 116.739 161.967 116.67 161.971 116.599Z" fill="#263238"/>
<path d="M163.004 122.261C162.997 122.421 162.934 122.574 162.828 122.695C162.721 122.815 162.577 122.895 162.419 122.922C162.321 122.933 162.222 122.923 162.128 122.895C162.034 122.867 161.947 122.821 161.871 122.759C161.791 122.688 161.729 122.6 161.687 122.502C161.646 122.403 161.628 122.297 161.633 122.191C161.639 122.084 161.668 121.981 161.719 121.887C161.77 121.793 161.841 121.712 161.927 121.65C162.009 121.595 162.1 121.557 162.197 121.539C162.293 121.521 162.392 121.522 162.488 121.543C162.644 121.584 162.781 121.678 162.876 121.809C162.97 121.94 163.015 122.1 163.004 122.261ZM163.004 122.261C163.009 122.19 162.995 122.119 162.966 122.054C162.936 121.989 162.891 121.933 162.834 121.889C162.774 121.84 162.7 121.809 162.622 121.8C162.545 121.791 162.466 121.805 162.396 121.839C162.325 121.874 162.267 121.928 162.226 121.995C162.185 122.062 162.165 122.139 162.167 122.217C162.158 122.308 162.178 122.4 162.226 122.479C162.274 122.557 162.346 122.618 162.431 122.652C162.489 122.678 162.551 122.691 162.614 122.691C162.677 122.691 162.739 122.678 162.797 122.652C162.86 122.608 162.913 122.55 162.949 122.482C162.985 122.414 163.004 122.338 163.004 122.261Z" fill="#263238"/>
<path d="M152.574 85.2527C152.511 86.0148 154.401 91.7273 157.695 92.6279C158.772 92.9239 160.63 87.1359 160.63 87.1359L160.863 86.7391L164.15 81.1903L158.589 74.4009L157.764 73.4687C157.764 73.4687 156.97 75.0496 155.994 77.0209L155.856 77.3043C155.799 77.4114 155.742 77.5122 155.692 77.6192C155.541 77.9153 155.39 78.2113 155.245 78.5136C155.1 78.8159 155.024 78.9671 154.917 79.2127C154.81 79.4583 154.697 79.6914 154.583 79.937C153.797 81.6627 153.126 83.4385 152.574 85.2527Z" fill="#EB9481"/>
<path d="M155.994 77.0209C156.052 78.8969 156.518 80.7377 157.359 82.4158C158.199 84.0939 159.395 85.5691 160.863 86.7391L164.15 81.1903L158.589 74.4009L157.764 73.4687C157.764 73.4687 156.97 75.0496 155.994 77.0209Z" fill="#263238"/>
<path d="M173.881 70.433C175.676 81.5997 169.189 83.9364 166.783 84.3206C164.598 84.6733 157.109 85.5802 154.187 74.6591C151.264 63.738 155.875 59.3733 160.831 58.2837C165.788 57.1941 172.099 59.26 173.881 70.433Z" fill="#EB9481"/>
<path d="M171.991 68.7577C171.732 68.7544 171.474 68.7355 171.217 68.701C170.939 68.7208 170.662 68.6477 170.43 68.4931C170.365 68.4317 170.324 68.3505 170.311 68.2626C170.299 68.1747 170.316 68.0851 170.36 68.0082C170.47 67.8678 170.616 67.7597 170.782 67.6954C170.949 67.6311 171.129 67.6129 171.305 67.6429C171.669 67.6441 172.019 67.7811 172.288 68.0271C172.344 68.0876 172.382 68.1631 172.397 68.2445C172.412 68.326 172.404 68.41 172.373 68.4868C172.342 68.5636 172.289 68.6299 172.222 68.6779C172.154 68.7258 172.074 68.7535 171.991 68.7577Z" fill="#263238"/>
<path d="M164.786 71.2329C165.048 71.2278 165.309 71.2067 165.567 71.1699C165.844 71.1864 166.119 71.1111 166.348 70.9557C166.411 70.893 166.45 70.8115 166.462 70.7239C166.473 70.6363 166.455 70.5473 166.411 70.4708C166.301 70.3315 166.155 70.2247 165.988 70.1615C165.822 70.0983 165.642 70.0811 165.467 70.1118C165.102 70.1194 164.752 70.2606 164.484 70.5086C164.426 70.5688 164.388 70.6444 164.372 70.7263C164.357 70.8082 164.366 70.8927 164.398 70.9696C164.43 71.0465 164.484 71.1123 164.553 71.1591C164.622 71.2058 164.703 71.2315 164.786 71.2329Z" fill="#263238"/>
<path d="M166.481 72.2973C166.481 72.2973 166.431 72.3476 166.437 72.3791C166.582 73.1349 166.626 74.023 165.977 74.3883C165.977 74.3883 165.977 74.4387 165.977 74.4324C166.808 74.1741 166.745 72.9901 166.481 72.2973Z" fill="#263238"/>
<path d="M165.694 71.617C164.434 71.7241 164.755 74.1867 165.902 74.0922C167.048 73.9978 166.714 71.5352 165.694 71.617Z" fill="#263238"/>
<path d="M165.202 71.806C165.007 71.9697 164.824 72.2469 164.572 72.3035C164.32 72.3602 164.018 72.1398 163.791 71.9131C163.791 71.9131 163.753 71.9131 163.753 71.9445C163.804 72.4232 164.043 72.883 164.56 72.8893C165.076 72.8956 165.315 72.4421 165.372 71.9508C165.378 71.8627 165.284 71.7367 165.202 71.806Z" fill="#263238"/>
<path d="M170.732 71.6171C170.732 71.6171 170.795 71.6485 170.795 71.68C170.858 72.4484 171.06 73.3176 171.784 73.4939C171.784 73.4939 171.784 73.538 171.784 73.5317C170.902 73.5128 170.65 72.3539 170.732 71.6171Z" fill="#263238"/>
<path d="M171.305 70.7416C172.521 70.5086 172.905 72.9649 171.771 73.179C170.638 73.3931 170.279 70.9368 171.305 70.7416Z" fill="#263238"/>
<path d="M171.84 70.8235C172.055 70.9242 172.281 71.1321 172.514 71.1132C172.747 71.0943 172.949 70.792 173.081 70.4834C173.081 70.4519 173.081 70.4834 173.119 70.4834C173.207 70.9557 173.119 71.4659 172.691 71.6233C172.262 71.7808 171.929 71.4155 171.74 70.962C171.708 70.9053 171.752 70.7857 171.84 70.8235Z" fill="#263238"/>
<path d="M169.831 75.4464C169.831 75.4464 170.039 76.5864 170.064 77.128C170.064 77.1784 169.938 77.2099 169.756 77.2288C169.299 77.331 168.822 77.3064 168.378 77.1577C167.934 77.0089 167.539 76.7417 167.236 76.3848C167.228 76.3742 167.224 76.3612 167.225 76.348C167.226 76.3348 167.231 76.3222 167.24 76.3125C167.249 76.3028 167.261 76.2965 167.274 76.2948C167.287 76.293 167.301 76.2959 167.312 76.3029C168.026 76.7434 168.863 76.9422 169.699 76.8698C169.73 76.7186 169.271 74.9299 169.359 74.9173C169.787 74.9357 170.21 75.0098 170.618 75.1378C170.247 72.7507 169.497 70.433 169.164 68.0523C169.164 67.9641 169.277 67.9326 169.302 68.0082C170.184 70.4578 170.817 72.9898 171.192 75.566C171.185 75.8873 170.052 75.5283 169.831 75.4464Z" fill="#263238"/>
<path d="M169.661 76.9705C169.386 77.4353 168.995 77.8214 168.528 78.0916C168.269 78.2279 167.974 78.2807 167.684 78.2428C167.054 78.1546 166.966 77.613 167.022 77.0902C167.054 76.8254 167.118 76.5653 167.211 76.3155C167.937 76.7897 168.796 77.0192 169.661 76.9705Z" fill="#263238"/>
<path d="M168.528 78.0916C168.269 78.2279 167.974 78.2807 167.684 78.2428C167.054 78.1546 166.966 77.613 167.022 77.0902C167.349 77.0651 167.675 77.1501 167.947 77.3316C168.22 77.513 168.424 77.7806 168.528 78.0916Z" fill="#FF9BBC"/>
<path d="M154.584 75.9754C155.275 75.5492 155.844 74.9508 156.235 74.2387C156.626 73.5266 156.825 72.7253 156.813 71.9131C158.707 70.8513 160.283 69.3032 161.379 67.4287C161.329 67.6681 160.951 69.4064 160.75 70.2881C167.804 68.2286 169.479 62.5098 169.479 62.5098C170.981 63.633 172.207 65.085 173.063 66.7548C173.063 66.7548 172.678 62.3461 170.115 59.6126C169.279 58.6591 168.204 57.9457 167.001 57.546C165.797 57.1464 164.509 57.0749 163.269 57.339C161.452 57.0864 159.6 57.328 157.909 58.0384C156.218 58.7488 154.749 59.9018 153.658 61.3761C149.469 66.9249 154.584 75.9754 154.584 75.9754Z" fill="#263238"/>
<path d="M166.071 68.5561C164.986 69.2977 163.797 69.8769 162.544 70.2755C164.509 69.5228 166.225 68.2384 167.501 66.5659C168.042 65.8505 168.491 65.0697 168.836 64.2418C169.249 63.3515 169.48 62.3881 169.517 61.4076C169.517 61.3926 169.523 61.3782 169.533 61.3675C169.544 61.3569 169.558 61.351 169.573 61.351C169.588 61.351 169.603 61.3569 169.613 61.3675C169.624 61.3782 169.63 61.3926 169.63 61.4076C169.695 62.3786 169.597 63.3536 169.34 64.2922C169.046 65.2088 168.585 66.063 167.98 66.8115C167.435 67.4792 166.799 68.0666 166.09 68.5561H166.071Z" fill="#263238"/>
<path d="M154.564 78.5136C154.737 78.566 154.914 78.5998 155.093 78.6144C155.271 78.6403 155.451 78.6403 155.629 78.6144C155.855 78.5741 156.069 78.4861 156.259 78.3561C156.406 78.2548 156.54 78.134 156.655 77.9971C156.821 77.7985 156.951 77.5726 157.039 77.3295L156.196 74.3631C156.196 74.3631 153.475 71.025 151.944 72.0201C150.414 73.0152 152.637 77.9593 154.564 78.5136Z" fill="#EB9481"/>
<path d="M152.618 73.4247V73.475C153.972 73.9096 154.753 75.0811 155.333 76.3092C155.246 76.1832 155.133 76.0773 155.002 75.999C154.871 75.9207 154.724 75.8718 154.572 75.8556C154.42 75.8394 154.266 75.8564 154.121 75.9054C153.977 75.9543 153.844 76.0341 153.733 76.1392C153.701 76.1392 153.733 76.2148 153.777 76.2022C154.003 76.1134 154.251 76.0959 154.488 76.1522C154.724 76.2085 154.938 76.3358 155.1 76.5171C155.365 76.8256 155.597 77.1613 155.792 77.5185C155.862 77.6319 156.07 77.5563 156.013 77.424V77.3925C155.906 75.6857 154.432 73.4247 152.618 73.4247Z" fill="#263238"/>
<path d="M144.733 88.1373C137.32 93.982 117.884 117.481 122.059 122.948C126.235 128.414 154.464 126.241 162.677 123.766C165.12 123.036 158.646 107.511 156.019 106.761C153.834 106.131 141.647 109.614 141.414 108.909C141.181 108.203 143.807 102.919 148.058 93.4404C152.984 82.5256 148.002 85.555 144.733 88.1373Z" fill="#EB9481"/>
<path d="M168.049 103.921C173.717 103.996 175.134 104.884 179.94 102.415C183.089 100.797 185.482 102.119 183.36 105.136C179.896 110.068 172.584 111.497 169.907 111.264L168.049 103.921Z" fill="#EB9481"/>
<path d="M152.53 106.994C152.53 106.994 159.276 104.475 165.309 103.984C169.479 103.631 178.643 103.864 185.879 114.061C187.592 116.479 188.329 121.134 184.091 118.211C181.08 116.133 179.802 113.903 177.83 113.015C177.83 113.015 178.063 119.049 175.575 120.68C173.399 122.097 171.126 123.36 168.773 124.459C168.472 124.074 168.197 123.671 167.948 123.25C167.948 123.25 165.486 124.554 161.373 123.514L152.53 106.994Z" fill="#EB9481"/>
<path d="M169.346 104.286C171.11 105.583 174.819 108.399 177.049 111.749C179.524 115.478 183.29 123.319 180.519 125.12C178.491 126.437 176.791 123.571 176.791 123.571C176.791 123.571 177.66 127.142 175.569 127.936C173.679 128.654 172.476 126.355 172.476 126.355C172.476 126.355 172.634 128.61 170.656 128.95C168.288 129.359 168.345 124.541 165.586 122.903C164.963 122.551 169.346 104.286 169.346 104.286Z" fill="#EB9481"/>
<path d="M172.672 113.733C175.021 116.494 176.472 119.907 176.829 123.514C176.829 123.603 176.772 123.659 176.747 123.577C175.777 120.141 174.391 116.835 172.622 113.733C172.622 113.733 172.659 113.689 172.672 113.733Z" fill="#263238"/>
<path d="M168.987 116.316C170.115 117.733 172.452 122.217 172.552 126.323C172.552 126.412 172.483 126.462 172.464 126.38C171.68 122.898 170.501 119.517 168.95 116.303C168.95 116.303 168.969 116.297 168.987 116.316Z" fill="#263238"/>
<path d="M177.837 112.965C179.562 113.771 180.595 114.854 181.956 116.114C182.622 116.759 183.322 117.369 184.053 117.94C184.727 118.451 185.722 119.2 186.572 118.715C186.785 118.55 186.949 118.331 187.048 118.08C187.146 117.83 187.176 117.557 187.133 117.292C187.025 116.525 186.795 115.781 186.453 115.087C186.453 115.087 186.484 115.037 186.503 115.087C186.838 115.721 187.106 116.388 187.303 117.078C187.431 117.548 187.414 118.047 187.252 118.507C186.83 119.465 185.64 119.414 184.853 119.017C184.387 118.757 183.946 118.453 183.536 118.111C183.142 117.791 182.758 117.458 182.384 117.109C181.616 116.397 180.885 115.642 180.129 114.924C179.384 114.246 178.597 113.615 177.774 113.034C177.764 113.026 177.759 113.014 177.758 113.002C177.758 112.989 177.762 112.977 177.77 112.968C177.779 112.959 177.79 112.953 177.803 112.953C177.815 112.952 177.827 112.957 177.837 112.965Z" fill="#263238"/>
<path d="M180.646 119.887C179.843 117.533 178.89 115.234 177.793 113.003C177.793 112.971 177.793 112.946 177.837 112.971C179.04 114.521 180.753 118.407 181.105 119.622C181.554 120.896 181.738 122.249 181.647 123.596C181.357 125.486 180.054 125.643 179.575 125.662C179.012 125.678 178.461 125.5 178.013 125.158C177.49 124.72 177.061 124.18 176.753 123.571C176.753 123.54 176.753 123.508 176.798 123.54C177.339 124.384 178.309 125.278 179.355 125.303C179.584 125.314 179.813 125.28 180.03 125.202C180.246 125.124 180.444 125.004 180.614 124.85C180.965 124.442 181.155 123.92 181.15 123.382C181.181 122.197 181.01 121.015 180.646 119.887Z" fill="#263238"/>
<path d="M152.53 106.994L158.444 126.682C158.444 126.682 123.174 129.12 121.121 122.727C119.068 116.334 135.897 95.122 142.9 89.271C151.025 82.4878 151.497 85.2905 148.909 92.0107C146.194 99.0458 141.502 109.098 141.502 109.098L152.53 106.994Z" fill="#455A64"/>
<path d="M130.386 112.398C132.138 111.546 133.95 110.824 135.808 110.238C137.646 109.661 139.524 109.221 141.426 108.921C142.51 108.739 143.599 108.613 144.689 108.474C144.689 108.474 144.727 108.518 144.689 108.525C142.777 108.834 140.884 109.254 139.021 109.784C137.169 110.297 135.326 110.838 133.491 111.409C132.451 111.737 131.431 112.108 130.405 112.467C130.367 112.474 130.342 112.417 130.386 112.398Z" fill="#263238"/>
<path d="M152.467 106.931C152.291 106.931 142.485 108.6 142.157 108.695C142.22 108.562 144.676 103.858 145.016 103.165L145.117 102.963C145.338 102.661 145.558 102.333 145.747 102.063C146.018 101.666 146.282 101.269 146.541 100.879L145.697 102.019C145.564 102.195 145.445 102.378 145.319 102.56C145.564 102.075 145.797 101.584 146.037 101.093C146.415 100.305 146.767 99.5119 147.114 98.712H147.076C146.358 100.085 145.596 101.433 144.878 102.8C144.16 104.166 141.42 109.199 141.439 109.199C141.458 109.199 152.266 107.145 152.48 107.095C152.549 107.045 152.537 106.919 152.467 106.931Z" fill="#263238"/>
<path d="M151.245 118.992C150.615 116.8 149.986 114.583 149.242 112.429C148.827 111.17 148.417 109.961 147.983 108.726C147.983 108.682 147.882 108.726 147.895 108.726C148.455 110.956 149.028 113.192 149.69 115.39C150.351 117.588 150.993 119.798 151.68 121.965C152.07 123.225 152.499 124.428 152.94 125.649C152.94 125.649 152.99 125.649 152.984 125.649C152.536 123.414 151.894 121.203 151.245 118.992Z" fill="#263238"/>
<path d="M158.835 127.035C158.583 126.405 158.274 125.536 157.997 124.931C157.922 124.774 157.802 124.787 157.859 124.931C158.041 125.486 158.167 126.09 158.344 126.657L156.864 126.72L155.15 126.815C154.029 126.871 152.915 126.915 151.793 126.953C149.526 127.02 147.261 127.041 144.998 127.016C140.448 126.986 135.903 126.719 131.381 126.216C130.121 126.071 128.862 125.901 127.602 125.694C126.362 125.506 125.132 125.256 123.918 124.944C123.918 124.944 123.873 124.994 123.918 125.007C124.942 125.392 125.995 125.697 127.067 125.92C128.194 126.147 129.334 126.349 130.474 126.506C132.748 126.827 135.034 127.029 137.32 127.167C141.861 127.444 146.415 127.52 150.962 127.419C152.222 127.39 153.496 127.346 154.785 127.287L156.712 127.186C157.423 127.198 158.133 127.148 158.835 127.035Z" fill="#263238"/>
</svg>
