<svg width="300" height="224" viewBox="0 0 300 224" fill="none" xmlns="http://www.w3.org/2000/svg">
<path d="M300 196.44H0V196.59H300V196.44Z" fill="#EBEBEB"/>
<path d="M269.94 206.094H250.068V206.244H269.94V206.094Z" fill="#EBEBEB"/>
<path d="M198.732 207.726H193.518V207.876H198.732V207.726Z" fill="#EBEBEB"/>
<path d="M249.468 200.526H237.954V200.676H249.468V200.526Z" fill="#EBEBEB"/>
<path d="M57.3901 201.534H31.4761V201.684H57.3901V201.534Z" fill="#EBEBEB"/>
<path d="M66.5341 201.534H62.7361V201.684H66.5341V201.534Z" fill="#EBEBEB"/>
<path d="M135.09 204.066H78.8821V204.216H135.09V204.066Z" fill="#EBEBEB"/>
<path d="M142.2 169.68H26.346C25.4384 169.678 24.5686 169.317 23.9274 168.674C23.2862 168.032 22.926 167.162 22.926 166.254V3.396C22.9339 2.49362 23.2975 1.63079 23.9379 0.994931C24.5782 0.359075 25.4436 0.00154583 26.346 0H142.2C143.109 0 143.98 0.360953 144.623 1.00345C145.265 1.64595 145.626 2.51737 145.626 3.426V166.254C145.626 167.163 145.265 168.034 144.623 168.677C143.98 169.319 143.109 169.68 142.2 169.68ZM26.346 0.12C25.4782 0.12159 24.6465 0.467439 24.0334 1.08164C23.4203 1.69583 23.076 2.52819 23.076 3.396V166.254C23.076 167.122 23.4203 167.954 24.0334 168.568C24.6465 169.183 25.4782 169.528 26.346 169.53H142.2C143.068 169.528 143.901 169.183 144.515 168.569C145.129 167.955 145.474 167.122 145.476 166.254V3.396C145.474 2.52764 145.129 1.6953 144.515 1.08127C143.901 0.467244 143.068 0.121587 142.2 0.12H26.346Z" fill="#EBEBEB"/>
<path d="M271.986 169.68H156.126C155.218 169.678 154.347 169.317 153.705 168.675C153.063 168.033 152.702 167.162 152.7 166.254V3.396C152.709 2.49307 153.074 1.63025 153.716 0.994556C154.357 0.358865 155.223 0.00152897 156.126 0H271.986C272.887 0.0031227 273.751 0.36135 274.39 0.997037C275.029 1.63272 275.392 2.49465 275.4 3.396V166.254C275.4 167.161 275.041 168.03 274.401 168.672C273.761 169.314 272.892 169.677 271.986 169.68ZM156.126 0.12C155.258 0.121587 154.425 0.467244 153.811 1.08127C153.197 1.6953 152.852 2.52764 152.85 3.396V166.254C152.852 167.122 153.197 167.955 153.811 168.569C154.425 169.183 155.258 169.528 156.126 169.53H271.986C272.854 169.528 273.687 169.183 274.301 168.569C274.915 167.955 275.26 167.122 275.262 166.254V3.396C275.26 2.52764 274.915 1.6953 274.301 1.08127C273.687 0.467244 272.854 0.121587 271.986 0.12H156.126Z" fill="#EBEBEB"/>
<path d="M171.468 1.96799C162.486 3.28461 154.157 7.42909 147.69 13.8C140.76 20.64 136.482 29.742 129.54 36.6C122.662 43.4088 114.064 48.2221 104.664 50.526C96.9299 52.404 89.6039 50.946 81.9599 53.238C69.7362 56.8682 58.8215 63.9524 50.5285 73.6387C42.2355 83.3251 36.9175 95.2009 35.2139 107.838C33.7799 118.362 34.9919 129.438 40.0139 138.816C43.9974 146.195 50.1307 152.188 57.5999 156C69.9719 162.252 84.4739 161.85 98.2379 163.482C111.118 165.002 123.706 168.402 135.6 173.574C150.468 180.054 164.25 189.3 179.952 193.374C198.744 198.246 219.876 194.844 235.206 182.928C250.536 171.012 259.134 150.414 255.24 131.394C252.84 119.724 246.24 109.392 242.262 98.178C238.828 88.5335 237.331 78.306 237.858 68.082C238.356 58.446 240.636 48.6 238.116 39.282C236.226 32.256 231.726 26.184 226.554 21.066C212.964 7.58999 190.998 -1.10401 171.468 1.96799Z" fill="#0D1836"/>
<path d="M127.188 73.134H124.122L123.36 70.728L122.616 73.134H119.466L121.95 75.282L120.762 79.128L123.36 76.494L126.024 79.128L124.788 75.24L127.188 73.134Z" fill="white"/>
<path d="M182.946 171.282H179.874L179.112 168.876L178.368 171.282H175.218L177.702 173.43L176.514 177.276L179.112 174.642L181.776 177.276L180.546 173.388L182.946 171.282Z" fill="white"/>
<path d="M127.428 114.972H126.114L125.79 113.94L125.472 114.972H124.122L125.184 115.89L124.68 117.534L125.79 116.412L126.93 117.534L126.402 115.872L127.428 114.972Z" fill="white"/>
<path d="M209.82 105.798H208.506L208.182 104.766L207.864 105.798H206.514L207.576 106.716L207.072 108.36L208.182 107.232L209.322 108.36L208.794 106.698L209.82 105.798Z" fill="white"/>
<path d="M128.154 100.56H126.846L126.516 99.528L126.198 100.56H124.854L125.916 101.478L125.406 103.122L126.516 102L127.656 103.122L127.128 101.46L128.154 100.56Z" fill="white"/>
<path d="M82.1519 105.006H80.8379L80.5139 103.98L80.1959 105.006H78.8459L79.9079 105.924L79.4039 107.574L80.5139 106.446L81.6539 107.574L81.1259 105.912L82.1519 105.006Z" fill="white"/>
<path d="M87.5461 130.032H86.2381L85.9081 129L85.5901 130.032H84.2461L85.3081 130.95L84.7981 132.594L85.9081 131.466L87.0481 132.594L86.5201 130.932L87.5461 130.032Z" fill="white"/>
<path d="M203.922 79.962H202.608L202.284 78.93L201.966 79.962H200.616L201.678 80.88L201.174 82.524L202.284 81.402L203.424 82.524L202.896 80.862L203.922 79.962Z" fill="white"/>
<path d="M194.172 44.916H193.224L192.99 44.166L192.756 44.916H191.784L192.552 45.576L192.186 46.764L192.99 45.954L193.812 46.764L193.428 45.564L194.172 44.916Z" fill="white"/>
<path d="M139.032 80.178H138.084L137.85 79.428L137.616 80.178H136.644L137.412 80.838L137.046 82.026L137.85 81.216L138.672 82.026L138.294 80.826L139.032 80.178Z" fill="white"/>
<path d="M103.452 87.846H102.504L102.264 87.102L102.036 87.846H101.064L101.832 88.506L101.466 89.7L102.264 88.884L103.086 89.7L102.708 88.5L103.452 87.846Z" fill="white"/>
<path d="M154.608 44.826H153.66L153.426 44.082L153.192 44.826H152.22L152.988 45.486L152.622 46.674L153.426 45.864L154.248 46.674L153.864 45.474L154.608 44.826Z" fill="white"/>
<path d="M225.774 91.194H224.826L224.592 90.45L224.358 91.194H223.386L224.154 91.86L223.788 93.048L224.592 92.232L225.414 93.048L225.03 91.848L225.774 91.194Z" fill="white"/>
<path d="M201.078 61.794H200.136L199.896 61.05L199.668 61.794H198.69L199.464 62.46L199.092 63.648L199.896 62.832L200.718 63.648L200.34 62.448L201.078 61.794Z" fill="white"/>
<path d="M230.394 109.752H229.446L229.206 109.008L228.978 109.752H228.006L228.774 110.418L228.408 111.606L229.206 110.79L230.034 111.606L229.65 110.4L230.394 109.752Z" fill="white"/>
<path d="M208.536 147.006H207.588L207.348 146.262L207.12 147.006H206.148L206.916 147.666L206.55 148.854L207.348 148.044L208.17 148.854L207.792 147.654L208.536 147.006Z" fill="white"/>
<path d="M192.42 107.304H191.472L191.238 106.56L191.004 107.304H190.032L190.8 107.97L190.434 109.158L191.238 108.348L192.06 109.158L191.676 107.958L192.42 107.304Z" fill="white"/>
<path d="M138.504 113.1H137.556L137.316 112.356L137.088 113.1H136.116L136.884 113.766L136.518 114.954L137.316 114.144L138.144 114.954L137.76 113.754L138.504 113.1Z" fill="white"/>
<path d="M95.712 158.574H94.398L94.074 157.542L93.75 158.574H92.406L93.468 159.492L92.964 161.136L94.074 160.008L95.214 161.136L94.686 159.474L95.712 158.574Z" fill="white"/>
<path d="M205.572 188.184H204.264L203.934 187.158L203.616 188.184H202.266L203.334 189.102L202.824 190.746L203.934 189.624L205.074 190.746L204.546 189.084L205.572 188.184Z" fill="white"/>
<path d="M126.228 132.18H124.914L124.59 131.148L124.272 132.18H122.922L123.99 133.098L123.48 134.742L124.59 133.62L125.73 134.742L125.202 133.08L126.228 132.18Z" fill="white"/>
<path d="M223.774 162.584C226.56 161.43 227.883 158.236 226.729 155.45C225.575 152.664 222.381 151.341 219.595 152.495C216.809 153.649 215.486 156.843 216.64 159.629C217.794 162.415 220.988 163.738 223.774 162.584Z" fill="white"/>
<path d="M171.45 28.626C171.45 29.2359 171.269 29.8322 170.93 30.3394C170.591 30.8465 170.11 31.2418 169.546 31.4752C168.983 31.7087 168.363 31.7697 167.764 31.6507C167.166 31.5317 166.617 31.238 166.185 30.8067C165.754 30.3754 165.46 29.8259 165.341 29.2276C165.222 28.6294 165.283 28.0093 165.517 27.4458C165.75 26.8823 166.145 26.4006 166.653 26.0617C167.16 25.7229 167.756 25.542 168.366 25.542C169.184 25.542 169.968 25.8669 170.547 26.4453C171.125 27.0236 171.45 27.8081 171.45 28.626Z" fill="white"/>
<path d="M59.8141 95.196L57.2761 96C56.5478 95.8753 55.7989 96.0131 55.1627 96.3889C54.5266 96.7646 54.0444 97.354 53.8021 98.052L51.8401 99.882C51.7979 99.9208 51.7701 99.9728 51.7615 100.029C51.7528 100.086 51.7637 100.144 51.7923 100.194C51.821 100.243 51.8657 100.282 51.9191 100.302C51.9725 100.323 52.0314 100.325 52.0861 100.308L54.6301 99.54C55.3739 99.6935 56.1482 99.5687 56.8062 99.1894C57.4642 98.8101 57.9601 98.2026 58.2001 97.482L60.0961 95.646C60.1426 95.6033 60.1727 95.5457 60.1812 95.4832C60.1896 95.4206 60.1759 95.3571 60.1424 95.3036C60.1089 95.2501 60.0577 95.2101 59.9977 95.1904C59.9377 95.1707 59.8727 95.1727 59.8141 95.196Z" fill="white"/>
<path d="M150 223.536C214.249 223.536 266.334 220.495 266.334 216.744C266.334 212.993 214.249 209.952 150 209.952C85.7505 209.952 33.666 212.993 33.666 216.744C33.666 220.495 85.7505 223.536 150 223.536Z" fill="#F5F5F5"/>
<path d="M243.594 178.824L251.916 173.46L249.336 180.504H243.114L243.594 178.824Z" fill="#263238"/>
<path opacity="0.2" d="M243.594 178.824L251.916 173.46L249.336 180.504H243.114L243.594 178.824Z" fill="white"/>
<path opacity="0.4" d="M243.762 178.902L251.826 173.706L249.336 180.504H243.264L243.762 178.902Z" fill="white"/>
<path d="M251.934 183.762L258.348 168.744H254.232L248.322 184.038L251.934 183.762Z" fill="#263238"/>
<path opacity="0.2" d="M251.934 183.762L258.348 168.744H254.232L248.322 184.038L251.934 183.762Z" fill="white"/>
<path opacity="0.4" d="M251.934 183.762L258.294 168.87H254.298L248.448 184.026L251.934 183.762Z" fill="white"/>
<path d="M252.186 183.708L258.552 168.648L262.104 168.558L255.978 183.168L252.186 183.708Z" fill="#263238"/>
<path opacity="0.2" d="M252.186 183.708L258.552 168.648L262.104 168.558L255.978 183.168L252.186 183.708Z" fill="white"/>
<path opacity="0.4" d="M252.258 183.696L258.648 168.744L262.068 168.648L255.978 183.168L252.258 183.696Z" fill="white"/>
<path d="M262.308 168.468L265.716 168.396L259.608 182.562L256.2 183.054L262.308 168.468Z" fill="#263238"/>
<path opacity="0.2" d="M262.308 168.468L265.716 168.396L259.608 182.562L256.2 183.054L262.308 168.468Z" fill="white"/>
<path opacity="0.4" d="M262.368 168.558L265.686 168.462L259.608 182.562L256.278 183.042L262.368 168.558Z" fill="white"/>
<path d="M265.932 168.396L268.92 168.306L263.052 182.064L259.788 182.544L265.932 168.396Z" fill="#263238"/>
<path opacity="0.2" d="M265.932 168.396L268.92 168.306L263.052 182.064L259.788 182.544L265.932 168.396Z" fill="white"/>
<path opacity="0.4" d="M265.998 168.462L268.902 168.354L263.052 182.064L259.884 182.526L265.998 168.462Z" fill="white"/>
<path d="M240.102 180.552L234.852 194.994L244.674 192.27L249.534 178.272L240.102 180.552Z" fill="#62CF3A"/>
<path opacity="0.2" d="M240.102 180.552L234.852 194.994L244.674 192.27L249.534 178.272L240.102 180.552Z" fill="black"/>
<path d="M226.392 172.536L240.102 180.552L234.852 194.994L221.49 186.114L226.392 172.536Z" fill="#62CF3A"/>
<path opacity="0.05" d="M226.392 172.536L240.102 180.552L234.852 194.994L221.49 186.114L226.392 172.536Z" fill="black"/>
<path d="M226.392 172.536L236.508 171.756L249.534 178.272L240.102 180.552L226.392 172.536Z" fill="#62CF3A"/>
<path opacity="0.4" d="M226.392 172.536L236.508 171.756L249.534 178.272L240.102 180.552L226.392 172.536Z" fill="white"/>
<path d="M243.852 167.184L244.236 167.382L240.978 176.136L240.492 175.986L243.852 167.184Z" fill="#263238"/>
<path opacity="0.4" d="M243.852 167.184L244.002 167.262L240.654 176.034L240.492 175.986L243.852 167.184Z" fill="white"/>
<path opacity="0.2" d="M244.236 167.382L244.002 167.262L240.654 176.034L240.978 176.136L244.236 167.382Z" fill="white"/>
<path d="M196.596 170.976L189.84 192.948L197.616 191.736L204.474 170.688L196.596 170.976Z" fill="#263238"/>
<path opacity="0.2" d="M196.596 170.976L189.84 192.948L197.616 191.736L204.474 170.688L196.596 170.976Z" fill="white"/>
<path opacity="0.4" d="M196.716 171.102L190.008 192.924L197.616 191.736L204.414 170.862L196.716 171.102Z" fill="white"/>
<path d="M204.81 170.688L198.054 191.736L205.392 190.662L212.1 170.394L204.81 170.688Z" fill="#263238"/>
<path opacity="0.2" d="M204.81 170.688L198.054 191.736L205.392 190.662L212.1 170.394L204.81 170.688Z" fill="white"/>
<path opacity="0.4" d="M204.936 170.862L198.228 191.706L205.392 190.662L212.064 170.52L204.936 170.862Z" fill="white"/>
<path d="M212.394 170.4L205.71 190.494L212.394 189.642L219.078 170.226L212.394 170.4Z" fill="#263238"/>
<path opacity="0.2" d="M212.394 170.4L205.71 190.494L212.394 189.642L219.078 170.226L212.394 170.4Z" fill="white"/>
<path opacity="0.4" d="M212.484 170.52L205.89 190.47L212.394 189.642L219.018 170.394L212.484 170.52Z" fill="white"/>
<path d="M219.348 170.052L212.592 189.546L218.934 188.646L225.492 169.836L219.348 170.052Z" fill="#263238"/>
<path opacity="0.2" d="M219.348 170.052L212.592 189.546L218.934 188.646L225.492 169.836L219.348 170.052Z" fill="white"/>
<path opacity="0.4" d="M219.42 170.178L212.742 189.528L218.934 188.646L225.45 169.956L219.42 170.178Z" fill="white"/>
<path d="M231.294 180.36L230.496 182.67L220.608 184.638L224.064 175.014L231.294 180.36Z" fill="#263238"/>
<path opacity="0.2" d="M231.294 180.36L230.496 182.67L220.608 184.638L224.064 175.014L231.294 180.36Z" fill="white"/>
<path opacity="0.4" d="M231.222 180.552L230.496 182.67L220.788 184.602L224.136 175.206L231.222 180.552Z" fill="white"/>
<path d="M249.75 179.286L240.324 196.848C237.804 195.648 237.786 188.502 239.664 184.398C241.986 180.414 247.14 178.458 249.75 179.286Z" fill="#263238"/>
<g opacity="0.2">
<path d="M241.08 195.432L240.672 196.194C238.338 193.992 238.536 187.68 239.664 184.398C237.888 191.436 241.08 195.432 241.08 195.432Z" fill="black"/>
</g>
<g opacity="0.3">
<path d="M249.75 179.286L240.324 196.848C237.804 195.648 237.786 188.502 239.664 184.398C241.986 180.414 247.14 178.458 249.75 179.286Z" fill="white"/>
</g>
<path opacity="0.2" d="M240.252 183.852C243.978 180.6 246.63 180.09 248.964 180.75L249.342 180.042C246.456 179.682 243.762 180.378 240.252 183.852Z" fill="white"/>
<path d="M241.398 185.922C238.638 190.722 238.026 195.522 240.03 196.674C242.034 197.826 245.892 194.874 248.652 190.11C251.412 185.346 252.024 180.51 250.02 179.364C248.016 178.218 244.158 181.146 241.398 185.922Z" fill="#62CF3A"/>
<path opacity="0.4" d="M241.398 185.922C238.638 190.722 238.026 195.522 240.03 196.674C242.034 197.826 245.892 194.874 248.652 190.11C251.412 185.346 252.024 180.51 250.02 179.364C248.016 178.218 244.158 181.146 241.398 185.922Z" fill="white"/>
<path opacity="0.2" d="M241.41 185.742C240.879 186.687 240.435 187.68 240.084 188.706C239.937 189.096 239.923 189.523 240.045 189.922C240.166 190.32 240.416 190.667 240.756 190.908C241.716 191.46 243.57 190.05 244.896 187.758C246.222 185.466 246.516 183.15 245.556 182.592C244.992 182.268 243.906 182.478 243.12 183.378C242.478 184.112 241.906 184.903 241.41 185.742Z" fill="black"/>
<path d="M246.456 187.368L243.948 186.354L242.526 184.8C242.183 184.907 241.891 185.134 241.702 185.439C241.514 185.745 241.442 186.108 241.5 186.462L243.432 187.098L245.352 189.264L246.456 187.368Z" fill="#263238"/>
<path opacity="0.2" d="M246.456 187.368L243.948 186.354L242.526 184.8C242.183 184.907 241.891 185.134 241.702 185.439C241.514 185.745 241.442 186.108 241.5 186.462L243.432 187.098L245.352 189.264L246.456 187.368Z" fill="white"/>
<path d="M245.502 188.094C245.196 188.628 245.13 189.156 245.352 189.294C245.574 189.432 246 189.096 246.306 188.568C246.612 188.04 246.678 187.506 246.456 187.368C246.234 187.23 245.808 187.566 245.502 188.094Z" fill="#263238"/>
<path opacity="0.4" d="M245.502 188.094C245.196 188.628 245.13 189.156 245.352 189.294C245.574 189.432 246 189.096 246.306 188.568C246.612 188.04 246.678 187.506 246.456 187.368C246.234 187.23 245.808 187.566 245.502 188.094Z" fill="white"/>
<path opacity="0.2" d="M241.722 185.436C241.546 185.756 241.468 186.122 241.5 186.486L243.432 187.122L245.352 189.288C245.112 189.108 245.28 188.388 245.556 188.01C245.556 188.01 244.8 187.536 241.722 185.436Z" fill="black"/>
<path opacity="0.2" d="M246.288 187.35L243.882 186.444L242.388 184.878L242.292 184.914L243.84 186.462L246.15 187.398L246.288 187.35Z" fill="white"/>
<g opacity="0.2">
<path d="M245.622 188.166C245.364 188.616 245.304 189.072 245.49 189.18C245.676 189.288 246.048 189.012 246.306 188.58C246.564 188.148 246.624 187.674 246.438 187.56C246.252 187.446 245.88 187.71 245.622 188.166Z" fill="black"/>
<path opacity="0.4" d="M245.622 188.166C245.364 188.616 245.304 189.072 245.49 189.18C245.676 189.288 246.048 189.012 246.306 188.58C246.564 188.148 246.624 187.674 246.438 187.56C246.252 187.446 245.88 187.71 245.622 188.166Z" fill="black"/>
</g>
<path d="M241.65 195.564L241.77 195.756L248.646 192.402L248.556 192.222L241.65 195.564Z" fill="#263238"/>
<path opacity="0.1" d="M241.65 195.564L241.77 195.756L248.646 192.402L248.556 192.222L241.65 195.564Z" fill="white"/>
<path d="M250.626 182.814H250.806L250.998 188.838H250.758L250.626 182.814Z" fill="#263238"/>
<path opacity="0.1" d="M250.626 182.814H250.806L250.998 188.838H250.758L250.626 182.814Z" fill="white"/>
<path d="M242.556 184.284L250.998 188.838L250.896 188.976L242.4 184.44L242.556 184.284Z" fill="#263238"/>
<path opacity="0.1" d="M242.556 184.284L250.998 188.838L250.896 188.976L242.4 184.44L242.556 184.284Z" fill="white"/>
<path d="M242.19 184.866L242.334 184.686L248.706 192.138L248.61 192.282L242.19 184.866Z" fill="#263238"/>
<path opacity="0.1" d="M242.19 184.866L242.334 184.686L248.706 192.138L248.61 192.282L242.19 184.866Z" fill="white"/>
<path d="M249.06 190.314C248.46 191.388 248.304 192.468 248.754 192.714C249.204 192.96 250.074 192.318 250.692 191.244C251.31 190.17 251.448 189.09 250.998 188.844C250.548 188.598 249.684 189.24 249.06 190.314Z" fill="#263238"/>
<path opacity="0.2" d="M249.06 190.314C248.46 191.388 248.304 192.468 248.754 192.714C249.204 192.96 250.074 192.318 250.692 191.244C251.31 190.17 251.448 189.09 250.998 188.844C250.548 188.598 249.684 189.24 249.06 190.314Z" fill="white"/>
<path opacity="0.1" d="M249.228 190.41C248.67 191.376 248.55 192.342 248.952 192.576C249.354 192.81 250.152 192.216 250.692 191.256C251.232 190.296 251.37 189.318 250.968 189.084C250.566 188.85 249.786 189.444 249.228 190.41Z" fill="black"/>
<path opacity="0.2" d="M230.496 182.67L221.49 186.114L222.15 184.284L230.496 182.67Z" fill="black"/>
<path d="M238.338 61.356C247.163 61.356 254.316 54.2024 254.316 45.378C254.316 36.5536 247.163 29.4 238.338 29.4C229.514 29.4 222.36 36.5536 222.36 45.378C222.36 54.2024 229.514 61.356 238.338 61.356Z" fill="#62CF3A"/>
<path opacity="0.4" d="M238.338 61.356C247.163 61.356 254.316 54.2024 254.316 45.378C254.316 36.5536 247.163 29.4 238.338 29.4C229.514 29.4 222.36 36.5536 222.36 45.378C222.36 54.2024 229.514 61.356 238.338 61.356Z" fill="white"/>
<path opacity="0.4" d="M238.338 61.356C247.163 61.356 254.316 54.2024 254.316 45.378C254.316 36.5536 247.163 29.4 238.338 29.4C229.514 29.4 222.36 36.5536 222.36 45.378C222.36 54.2024 229.514 61.356 238.338 61.356Z" fill="white"/>
<path opacity="0.2" d="M224.262 37.8C223.902 39.6 225.15 40.356 227.892 40.2C234.392 39.8368 240.744 38.1245 246.546 35.172C247.818 34.302 247.944 33.312 247.464 32.256C255.222 38.418 255.762 46.656 252.384 52.986C251.561 54.2328 250.328 55.1521 248.898 55.584C244.756 57.2147 240.413 58.2783 235.986 58.746C231.888 59.346 229.482 59.076 228.558 58.008C221.568 52.59 220.98 44.28 224.262 37.8Z" fill="white"/>
<path opacity="0.2" d="M222.36 45.378C222.344 48.4535 223.265 51.4609 225 54C225.84 55.2 228.558 55.44 232.8 54.846C238.313 54.2781 243.722 52.9536 248.874 50.91C251.682 49.806 253.542 48.396 254.34 46.626C254.526 43.7903 253.964 40.9554 252.708 38.406C252.462 40.614 250.95 42.444 247.908 43.806C241.959 46.0334 235.772 47.5617 229.47 48.36C225.456 48.822 222.69 48.162 222.36 45.378Z" fill="white"/>
<path opacity="0.1" d="M231.912 31.314C233.436 30.725 235.016 30.2928 236.628 30.024C238.746 29.808 239.112 30.168 238.878 30.726C238.249 31.3709 237.504 31.8919 236.682 32.262C235.404 32.8158 234.048 33.166 232.662 33.3C231.696 33.342 230.67 33.366 230.088 32.922C229.8 32.4 230.664 31.848 231.912 31.314Z" fill="black"/>
<path d="M264.144 37.53C263.346 35.07 258.096 34.38 250.77 35.346C251.425 36.1344 251.992 36.9914 252.462 37.902C255.084 38.004 256.818 38.628 257.196 39.786C258.12 42.648 250.434 47.7 240.024 51.066C229.614 54.432 220.428 54.852 219.504 51.99C219.102 50.79 220.068 49.308 222.372 47.58C222.342 47.58 222.534 47.454 222.504 47.472C222.376 46.4774 222.34 45.4732 222.396 44.472C215.712 48.036 211.728 51.75 212.538 54.246C213.81 58.164 226.392 57.6 240.648 52.98C254.904 48.36 265.416 41.448 264.144 37.53Z" fill="#62CF3A"/>
<path opacity="0.3" d="M264.144 37.53C263.346 35.07 258.096 34.38 250.77 35.346C251.425 36.1344 251.992 36.9914 252.462 37.902C255.084 38.004 256.818 38.628 257.196 39.786C258.12 42.648 250.434 47.7 240.024 51.066C229.614 54.432 220.428 54.852 219.504 51.99C219.102 50.79 220.068 49.308 222.372 47.58C222.342 47.58 222.534 47.454 222.504 47.472C222.376 46.4774 222.34 45.4732 222.396 44.472C215.712 48.036 211.728 51.75 212.538 54.246C213.81 58.164 226.392 57.6 240.648 52.98C254.904 48.36 265.416 41.448 264.144 37.53Z" fill="white"/>
<path d="M84.77 90.6883C93.9106 81.5477 93.9106 66.7278 84.77 57.5872C75.6294 48.4466 60.8096 48.4466 51.6689 57.5872C42.5283 66.7278 42.5283 81.5477 51.6689 90.6883C60.8096 99.8289 75.6294 99.8289 84.77 90.6883Z" fill="#62CF3A"/>
<path opacity="0.4" d="M84.77 90.6883C93.9106 81.5477 93.9106 66.7278 84.77 57.5872C75.6294 48.4466 60.8096 48.4466 51.6689 57.5872C42.5283 66.7278 42.5283 81.5477 51.6689 90.6883C60.8096 99.8289 75.6294 99.8289 84.77 90.6883Z" fill="white"/>
<path opacity="0.2" d="M85.02 75.942L84.486 76.02C84.417 76.0311 84.3465 76.0272 84.2792 76.0085C84.2119 75.9899 84.1494 75.957 84.096 75.912L83.232 75.186C83.1943 75.1566 83.1542 75.1305 83.112 75.108L80.592 74.022C80.507 73.985 80.4342 73.9246 80.382 73.848L78.96 71.838C78.8971 71.746 78.8098 71.6732 78.708 71.628L77.874 71.244C77.8361 71.2257 77.7956 71.2136 77.754 71.208L76.872 71.076C76.7504 71.0544 76.6354 71.0052 76.536 70.932L74.664 69.516C74.5882 69.4604 74.4993 69.4252 74.406 69.414L73.032 69.234C72.9423 69.2218 72.8511 69.2342 72.768 69.27L72.396 69.432C72.3334 69.4587 72.266 69.4725 72.198 69.4725C72.1299 69.4725 72.0626 69.4587 72 69.432L70.362 68.676C70.2652 68.6284 70.155 68.6157 70.05 68.64L68.598 68.964C68.507 68.9868 68.4253 69.0371 68.364 69.108L67.764 69.768C67.7128 69.8246 67.6475 69.8667 67.5748 69.8898C67.5021 69.913 67.4245 69.9165 67.35 69.9L66.15 69.648L63.624 68.52L62.802 67.236C62.7409 67.1353 62.7196 67.0156 62.742 66.9L62.922 65.904L63.522 64.476C63.5289 64.4621 63.5318 64.4465 63.5304 64.431C63.5289 64.4155 63.5232 64.4007 63.5139 64.3883C63.5046 64.3759 63.492 64.3663 63.4775 64.3606C63.463 64.3549 63.4473 64.3533 63.432 64.356L62.37 64.482C62.303 64.4906 62.2389 64.5145 62.1827 64.552C62.1264 64.5895 62.0797 64.6395 62.046 64.698L61.734 65.238C61.6982 65.2983 61.6504 65.3507 61.5937 65.392C61.537 65.4333 61.4724 65.4625 61.404 65.478L59.952 65.802C59.8852 65.819 59.8144 65.8098 59.7542 65.7764C59.694 65.7429 59.6488 65.6877 59.628 65.622L59.448 65.076L59.004 64.26C58.9632 64.1932 58.9416 64.1163 58.9416 64.038C58.9416 63.9597 58.9632 63.8829 59.004 63.816L59.724 62.766L60.006 62.04C60.0415 61.9458 60.1068 61.8657 60.192 61.812L61.146 61.212C61.2429 61.1526 61.357 61.1272 61.47 61.14L62.376 61.266C62.4333 61.2745 62.4917 61.2709 62.5475 61.2554C62.6033 61.2399 62.6553 61.2128 62.7 61.176L63.066 60.888C63.1325 60.8391 63.2116 60.8099 63.294 60.804L64.308 60.732C64.3907 60.7275 64.4733 60.744 64.548 60.78L65.094 61.032C65.1465 61.0579 65.1907 61.0981 65.2215 61.148C65.2523 61.1979 65.2684 61.2554 65.268 61.314V61.8C65.268 61.8764 65.2983 61.9496 65.3523 62.0037C65.4063 62.0577 65.4796 62.088 65.556 62.088H65.718C65.7697 62.0873 65.8208 62.0761 65.868 62.0549C65.9153 62.0337 65.9576 62.003 65.9925 61.9647C66.0274 61.9265 66.054 61.8815 66.0708 61.8325C66.0876 61.7835 66.0941 61.7316 66.09 61.68L66.042 61.26L65.946 60.408C65.9361 60.3269 65.9516 60.2447 65.9902 60.1728C66.0289 60.1008 66.0889 60.0425 66.162 60.006L67.134 59.52L68.406 58.122L69.27 56.82L70.866 56.322C70.9331 56.3016 70.9919 56.2604 71.034 56.2043C71.0761 56.1482 71.0992 56.0801 71.1 56.01V55.23C71.0994 55.1609 71.1222 55.0937 71.1647 55.0392C71.2072 54.9848 71.2668 54.9463 71.334 54.93L72.39 54.672C72.484 54.6494 72.5669 54.5941 72.624 54.516L73.062 53.868C73.0774 53.8461 73.0875 53.8209 73.0916 53.7943C73.0957 53.7678 73.0936 53.7407 73.0854 53.7152C73.0773 53.6896 73.0634 53.6663 73.0447 53.647C73.0261 53.6277 73.0032 53.613 72.978 53.604L71.052 52.896L69.642 52.212C69.581 52.1827 69.5134 52.1701 69.4459 52.1754C69.3785 52.1806 69.3137 52.2036 69.258 52.242L67.458 53.496C67.395 53.5384 67.3223 53.564 67.2467 53.5703C67.171 53.5766 67.0951 53.5634 67.026 53.532L65.724 52.932L64.746 52.482C64.7267 52.4736 64.7103 52.4598 64.6988 52.4422C64.6873 52.4246 64.6811 52.404 64.6811 52.383C64.6811 52.362 64.6873 52.3414 64.6988 52.3238C64.7103 52.3062 64.7267 52.2924 64.746 52.284L65.736 51.954C65.7801 51.9405 65.8209 51.918 65.856 51.888L67.2 50.76C63.8469 50.9363 60.5717 51.8369 57.6 53.4C56.4071 56.4389 55.5617 59.6031 55.08 62.832C55.0711 62.907 55.0801 62.9831 55.1061 63.054C55.1322 63.1249 55.1746 63.1886 55.23 63.24L58.914 66.768C58.9796 66.8299 59.0641 66.868 59.154 66.876L60.522 67.026C60.5905 67.0315 60.6566 67.0542 60.714 67.092L65.994 70.266C66.0575 70.302 66.109 70.3559 66.142 70.421C66.1751 70.4861 66.1883 70.5595 66.18 70.632L65.67 75.966C65.6468 76.1655 65.6935 76.3669 65.802 76.536L68.382 80.634C68.4159 80.6868 68.4585 80.7334 68.508 80.772L70.488 82.296C70.5355 82.3329 70.5723 82.3818 70.5945 82.4378C70.6166 82.4937 70.6234 82.5546 70.614 82.614L69.906 86.946L68.556 93.636C68.688 94.536 69.858 93.984 71.556 92.724L73.242 89.952L74.724 89.352L78.516 86.646L81.126 83.688L82.53 80.58C82.5543 80.5306 82.5845 80.4842 82.62 80.442L84.048 78.804L85.002 77.814C85.0886 77.7234 85.1379 77.6034 85.14 77.478V76.05C85.1411 76.0345 85.1387 76.0189 85.1329 76.0044C85.1271 75.9899 85.1181 75.977 85.1065 75.9665C85.0949 75.9561 85.0811 75.9485 85.0661 75.9442C85.0511 75.94 85.0353 75.9392 85.02 75.942Z" fill="black"/>
<path d="M78.6482 55.704H78.6182C78.621 55.6922 78.621 55.6798 78.6182 55.668L78.6482 55.704Z" fill="white"/>
<path d="M168.966 116.1C170.922 117.132 186.126 134.28 182.07 142.434C179.07 148.434 160.32 151.224 160.32 151.224L158.01 146.106C158.01 146.106 171.738 141.246 172.548 139.116C173.358 136.986 157.932 125.646 157.932 125.646L168.966 116.1Z" fill="#62CF3A"/>
<path opacity="0.3" d="M168.966 116.1C170.922 117.132 186.126 134.28 182.07 142.434C179.07 148.434 160.32 151.224 160.32 151.224L158.01 146.106C158.01 146.106 171.738 141.246 172.548 139.116C173.358 136.986 157.932 125.646 157.932 125.646L168.966 116.1Z" fill="white"/>
<path opacity="0.2" d="M166.878 142.578C166.386 144.57 164.958 146.106 162.042 146.934L163.842 150.576L163.47 150.654L160.626 145.134L166.878 142.578Z" fill="black"/>
<path d="M160.068 144L164.046 151.728L156.384 153.462C156.275 153.485 156.172 153.53 156.081 153.595C155.99 153.66 155.914 153.743 155.858 153.839C155.801 153.935 155.766 154.042 155.753 154.153C155.74 154.263 155.751 154.376 155.784 154.482L156.696 157.296C156.772 157.548 156.763 157.817 156.671 158.063C156.579 158.309 156.408 158.518 156.186 158.658L155.586 159.018C155.405 159.126 155.189 159.159 154.984 159.112C154.778 159.066 154.599 158.942 154.482 158.766L147.882 148.8C147.84 148.737 147.814 148.666 147.804 148.591C147.794 148.516 147.802 148.44 147.826 148.369C147.851 148.298 147.891 148.233 147.945 148.18C147.998 148.126 148.063 148.086 148.134 148.062L160.068 144Z" fill="#62CF3A"/>
<g opacity="0.2">
<path d="M160.068 144L164.046 151.728L156.384 153.462C156.275 153.485 156.172 153.53 156.081 153.595C155.99 153.66 155.914 153.743 155.858 153.839C155.801 153.935 155.766 154.042 155.753 154.153C155.74 154.263 155.751 154.376 155.784 154.482L156.696 157.296C156.772 157.548 156.763 157.817 156.671 158.063C156.579 158.309 156.408 158.518 156.186 158.658L155.586 159.018C155.405 159.126 155.189 159.159 154.984 159.112C154.778 159.066 154.599 158.942 154.482 158.766L147.882 148.8C147.84 148.737 147.814 148.666 147.804 148.591C147.794 148.516 147.802 148.44 147.826 148.369C147.851 148.298 147.891 148.233 147.945 148.18C147.998 148.126 148.063 148.086 148.134 148.062L160.068 144Z" fill="white"/>
</g>
<path opacity="0.2" d="M153 146.4C155.817 147.116 158.739 147.319 161.628 147L160.068 143.97L153 146.4Z" fill="black"/>
<path opacity="0.2" d="M168.204 133.848L169.464 135C170.748 130.362 168.432 125.922 167.664 120L166.554 120.312C167.611 124.748 168.165 129.288 168.204 133.848Z" fill="black"/>
<path d="M134.496 165.744L123.6 169.926L121.56 153.9L132.324 149.586L134.496 165.744Z" fill="#62CF3A"/>
<path opacity="0.2" d="M134.496 165.744L123.6 169.926L121.56 153.9L132.324 149.586L134.496 165.744Z" fill="black"/>
<path d="M127.632 150C134.118 136.722 140.622 127.152 147.174 125.88L196.8 111.6C208.704 109.8 219.444 113.316 228.954 122.508C227.196 137.424 219.954 145.254 209.562 148.962L158.238 162.45C153.552 163.614 143.928 160.002 127.632 150Z" fill="#62CF3A"/>
<path d="M113.79 151.626L131.268 143.4C135.84 146.4 136.326 150.876 134.91 154.404L117.174 160.242C113.364 157.974 112.584 155.478 113.79 151.626Z" fill="#62CF3A"/>
<path d="M101.538 147.666L94.392 148.308C92.1899 148.505 90.1116 149.413 88.47 150.894L66.384 170.862L96.27 173.4C97.8764 173.538 99.4926 173.293 100.986 172.686L106.71 170.346C108.263 169.712 109.636 168.704 110.706 167.413C111.777 166.121 112.513 164.586 112.848 162.942L113.076 161.826C113.419 160.124 113.322 158.362 112.794 156.708L112.146 154.686C111.737 153.404 111.079 152.215 110.208 151.188C109.149 149.952 107.809 148.987 106.301 148.374C104.792 147.761 103.159 147.519 101.538 147.666Z" fill="#62CF3A"/>
<path opacity="0.19" d="M101.538 147.666L94.392 148.308C92.1899 148.505 90.1116 149.413 88.47 150.894L66.384 170.862L96.27 173.4C97.8764 173.538 99.4926 173.293 100.986 172.686L106.71 170.346C108.263 169.712 109.636 168.704 110.706 167.413C111.777 166.121 112.513 164.586 112.848 162.942L113.076 161.826C113.419 160.124 113.322 158.362 112.794 156.708L112.146 154.686C111.737 153.404 111.079 152.215 110.208 151.188C109.149 149.952 107.809 148.987 106.301 148.374C104.792 147.761 103.159 147.519 101.538 147.666Z" fill="white"/>
<path opacity="0.29" d="M105.996 152.754L102.354 153.084C101.238 153.187 100.186 153.648 99.354 154.398L88.104 164.568L103.326 165.876C104.144 165.945 104.966 165.819 105.726 165.51L108.642 164.31C109.433 163.987 110.133 163.473 110.678 162.815C111.223 162.156 111.598 161.374 111.768 160.536L111.882 159.966C112.059 159.1 112.011 158.204 111.744 157.362L111.414 156.33C111.207 155.67 110.87 155.058 110.424 154.53C109.882 153.901 109.197 153.411 108.426 153.102C107.656 152.793 106.822 152.674 105.996 152.754Z" fill="white"/>
<path d="M107.4 154.932L105.12 155.136C104.419 155.202 103.758 155.492 103.236 155.964L96.2041 162.324L105.72 163.14C106.233 163.182 106.749 163.104 107.226 162.912L109.026 162.168C109.52 161.965 109.957 161.642 110.297 161.23C110.637 160.818 110.87 160.328 110.976 159.804L111.048 159.45C111.156 158.909 111.126 158.35 110.958 157.824L110.754 157.176C110.628 156.77 110.425 156.393 110.154 156.066C109.819 155.671 109.394 155.362 108.915 155.165C108.436 154.968 107.916 154.888 107.4 154.932Z" fill="#62CF3A"/>
<path opacity="0.1" d="M127.632 150C134.118 136.722 140.622 127.152 147.57 125.766L197.16 111.51C208.674 109.8 219.414 113.34 228.924 122.532C227.166 137.448 219.924 145.278 209.532 148.986L158.208 162.474C153.552 163.614 143.928 160.002 127.632 150Z" fill="black"/>
<path d="M113.79 151.626L131.268 143.4C130.158 148.23 132.582 152.094 134.91 154.404L117.174 160.242C113.364 157.974 112.584 155.478 113.79 151.626Z" fill="#62CF3A"/>
<path d="M111.084 178.404L127.782 172.026L130.806 151.896L118.308 156.708L111.084 178.404Z" fill="#62CF3A"/>
<path opacity="0.3" d="M111.084 178.404L127.782 172.026L130.806 151.896L118.308 156.708L111.084 178.404Z" fill="white"/>
<path d="M96.5759 138.474L114.774 132.942L129.624 146.04L115.266 151.95L96.5759 138.474Z" fill="#62CF3A"/>
<path opacity="0.3" d="M96.5759 138.474L114.774 132.942L129.624 146.04L115.266 151.95L96.5759 138.474Z" fill="white"/>
<path opacity="0.7" d="M189.198 113.802L191.706 113.082C190.839 113.673 190.11 114.444 189.568 115.343C189.026 116.242 188.685 117.247 188.568 118.29C186.366 129.882 189.252 140.49 196.584 149.676C197.784 150.912 199.746 151.218 201.42 151.116L199.272 151.68C197.004 151.83 195.954 151.08 194.64 149.88C187.254 142.806 184.002 128.706 186.558 118.452C187.026 116.028 188.154 114.102 189.198 113.802Z" fill="white"/>
<path opacity="0.7" d="M183.48 115.446L185.88 114.756C184.356 115.416 183.072 117.846 182.742 119.94C180.546 131.532 183.45 142.002 190.758 151.326C191.79 152.472 193.872 152.76 195.558 152.664L193.314 153.234C191.046 153.384 190.056 152.844 188.826 151.542C181.44 144.468 178.182 130.368 180.738 120.114C181.098 117.696 182.766 115.65 183.48 115.446Z" fill="white"/>
<path d="M227.25 121.758C226.788 123 226.998 123.948 228.168 124.458L243.654 119.778C245.976 118.824 246.834 118.218 243.378 118.656L227.25 121.758Z" fill="#62CF3A"/>
<path opacity="0.3" d="M227.25 121.758C226.788 123 226.998 123.948 228.168 124.458L243.654 119.778C245.976 118.824 246.834 118.218 243.378 118.656L227.25 121.758Z" fill="black"/>
<path opacity="0.2" d="M133.464 152.742C143.406 156.342 154.59 161.184 159.336 159.756L210 146.286C216.678 145.296 222.816 132.306 227.448 123.978C222.048 131.646 216.588 142.944 208.65 144.576L159.336 157.8C153.6 159.702 142.674 155.154 133.464 152.742Z" fill="black"/>
<path opacity="0.4" d="M191.712 114.336C190.738 115.055 190.071 116.116 189.846 117.306L198.246 114.978C206.16 113.256 220.116 118.476 227.046 122.778C221.046 117.45 206.154 111.006 198.846 112.764L191.712 114.336Z" fill="white"/>
<path opacity="0.3" d="M227.19 123.612L227.862 124.302L245.526 118.872L227.19 123.612Z" fill="black"/>
<path opacity="0.2" d="M164.442 120.918L164.01 144.846L147.12 144.936C155.922 148.326 164.7 149.34 166.986 145.926C170.94 139.326 170.766 130.242 168.186 119.832L164.442 120.918Z" fill="black"/>
<path opacity="0.2" d="M168.462 120.888L181.854 117.144C181.35 117.8 181.016 118.571 180.882 119.388L168.882 122.796L168.462 120.888Z" fill="#E6E6E6"/>
<path opacity="0.2" d="M153.342 125.808L146.556 127.974C144.972 128.728 143.547 129.776 142.356 131.064L138.684 135.318L141.21 135.87L144.258 132.318C145.185 131.242 146.322 130.368 147.6 129.75L154.074 127.452L153.342 125.808Z" fill="#E0E0E0"/>
<path d="M140.334 93.6L149.442 100.596L164.124 102.468L173.226 81.42L168.936 75.516L149.442 68.55C144.54 75.522 142.248 84.192 140.334 93.6Z" fill="#62CF3A"/>
<path opacity="0.2" d="M140.334 93.6L149.442 100.596L164.124 102.468L173.226 81.42L168.936 75.516L149.442 68.55C145.2 74.67 142.236 83.19 140.334 93.6Z" fill="white"/>
<path opacity="0.3" d="M140.334 93.6L149.442 100.59L158.868 77.298C155.82 75.552 152.682 72.672 149.442 68.55C145.626 73.554 142.632 82.098 140.334 93.6Z" fill="black"/>
<path d="M165.246 116.118C166.482 117.918 171.738 140.304 164.31 145.572C158.85 149.442 140.988 143.034 140.988 143.034L141.366 137.43C141.366 137.43 155.766 139.644 157.488 138.15C159.21 136.656 151.392 123.03 150.978 119.37C150.564 115.71 165.246 116.118 165.246 116.118Z" fill="#62CF3A"/>
<path opacity="0.3" d="M165.246 116.118C166.482 117.918 171.738 140.304 164.31 145.572C158.85 149.442 140.988 143.034 140.988 143.034L141.366 137.43C141.366 137.43 155.766 139.644 157.488 138.15C159.21 136.656 151.392 123.03 150.978 119.37C150.564 115.71 165.246 116.118 165.246 116.118Z" fill="white"/>
<path d="M147.636 137.25L147.084 145.92L139.614 143.478C139.508 143.444 139.395 143.432 139.284 143.445C139.173 143.457 139.066 143.492 138.969 143.549C138.873 143.606 138.79 143.682 138.725 143.773C138.66 143.865 138.616 143.968 138.594 144.078L137.934 146.958C137.87 147.213 137.723 147.44 137.517 147.604C137.311 147.767 137.057 147.859 136.794 147.864H136.098C135.887 147.864 135.684 147.783 135.531 147.638C135.378 147.493 135.287 147.295 135.276 147.084L134.724 135.138C134.72 135.062 134.734 134.987 134.764 134.917C134.795 134.847 134.841 134.786 134.899 134.737C134.957 134.688 135.026 134.654 135.099 134.636C135.173 134.618 135.25 134.617 135.324 134.634L147.636 137.25Z" fill="#62CF3A"/>
<path d="M178.266 81.984C178.266 81.984 180.996 95.346 182.862 98.028C184.728 100.71 194.262 109.71 194.262 109.71L193.362 112.506C193.362 112.506 179.046 103.32 178.062 102.03C177.078 100.74 170.4 88.2 170.4 88.2L178.266 81.984Z" fill="#62CF3A"/>
<path d="M182.862 67.056C182.862 67.056 182.082 70.854 179.142 71.688C176.202 72.522 179.19 64.38 179.19 64.38L181.878 63.72L182.862 67.056Z" fill="#263238"/>
<path d="M182.505 76.2745C186.676 72.1037 186.676 65.3415 182.505 61.1707C178.334 56.9999 171.572 56.9999 167.401 61.1707C163.23 65.3415 163.23 72.1037 167.401 76.2745C171.572 80.4453 178.334 80.4453 182.505 76.2745Z" fill="#263238"/>
<path opacity="0.2" d="M182.505 76.2745C186.676 72.1037 186.676 65.3415 182.505 61.1707C178.334 56.9999 171.572 56.9999 167.401 61.1707C163.23 65.3415 163.23 72.1037 167.401 76.2745C171.572 80.4453 178.334 80.4453 182.505 76.2745Z" fill="white"/>
<path opacity="0.7" d="M177.6 76.962C179.829 76.5116 181.801 75.2231 183.108 73.362L182.286 72.876C180.809 74.4566 178.996 75.6867 176.982 76.476L177.6 76.962Z" fill="white"/>
<path opacity="0.7" d="M183.39 72.798L182.538 72.396C182.734 72.1747 182.869 71.9057 182.928 71.616L183.726 72.024C183.702 72.3119 183.584 72.584 183.39 72.798Z" fill="white"/>
<path d="M166.998 76.644C166.398 78.846 172.734 81.942 174.954 79.74C173.754 78.834 173.442 77.886 173.592 76.962C173.703 76.4014 173.925 75.8688 174.246 75.396C174.414 75.1248 174.598 74.8642 174.798 74.616L172.098 69.024C171.54 71.484 170.292 77.04 166.998 76.644Z" fill="#E4897B"/>
<path opacity="0.2" d="M172.026 71.64C170.826 74.382 172.626 76.254 173.592 76.962C173.703 76.4014 173.925 75.8688 174.246 75.396L172.026 71.64Z" fill="black"/>
<path d="M171.132 72.696C171.35 73.5961 171.86 74.3989 172.581 74.9794C173.303 75.56 174.196 75.8857 175.122 75.906C176.321 75.961 177.495 75.5553 178.404 74.772C178.531 74.6658 178.652 74.5516 178.764 74.43C180.888 72.174 182.964 67.632 180.78 64.83C180.302 64.2092 179.672 63.7216 178.952 63.4138C178.231 63.106 177.444 62.9883 176.664 63.072C175.885 63.1557 175.141 63.4379 174.502 63.8918C173.863 64.3456 173.351 64.9558 173.016 65.664C171.522 68.676 170.508 70.374 171.132 72.696Z" fill="#E4897B"/>
<path d="M176.964 69C176.925 69.0407 176.895 69.0888 176.876 69.1415C176.856 69.1942 176.847 69.2503 176.85 69.3064C176.853 69.3626 176.867 69.4176 176.892 69.468C176.917 69.5185 176.951 69.5634 176.994 69.6C177.156 69.69 177.39 69.6 177.522 69.33C177.654 69.06 177.642 68.832 177.486 68.73C177.33 68.628 177.102 68.778 176.964 69Z" fill="#263238"/>
<path d="M179.634 70.554C179.559 70.6384 179.521 70.749 179.528 70.8614C179.535 70.9739 179.586 71.0791 179.67 71.154C179.826 71.238 180.06 71.118 180.198 70.884C180.336 70.65 180.318 70.38 180.162 70.284C180.006 70.188 179.766 70.326 179.634 70.554Z" fill="#263238"/>
<path d="M178.722 70.2C178.586 71.0841 178.576 71.983 178.692 72.87C178.463 72.8934 178.231 72.8664 178.014 72.7907C177.796 72.715 177.597 72.5926 177.432 72.432L178.722 70.2Z" fill="#DE5753"/>
<path d="M176.628 67.68C176.654 67.6947 176.683 67.7025 176.712 67.7025C176.742 67.7025 176.77 67.6947 176.796 67.68C176.978 67.5972 177.178 67.5584 177.378 67.5667C177.578 67.575 177.773 67.6303 177.948 67.728C177.983 67.744 178.022 67.7472 178.059 67.737C178.096 67.7268 178.128 67.7038 178.15 67.6721C178.171 67.6405 178.181 67.6022 178.177 67.5641C178.173 67.526 178.156 67.4905 178.128 67.464C177.909 67.335 177.662 67.2606 177.409 67.247C177.155 67.2334 176.901 67.2811 176.67 67.386C176.63 67.402 176.599 67.4331 176.582 67.4724C176.565 67.5118 176.564 67.5562 176.58 67.596C176.591 67.6267 176.607 67.6552 176.628 67.68Z" fill="#263238"/>
<path d="M176.346 73.416C175.978 73.2743 175.649 73.046 175.388 72.7505C175.127 72.4549 174.941 72.1007 174.846 71.718C174.842 71.695 174.848 71.6715 174.861 71.6525C174.875 71.6335 174.895 71.6204 174.918 71.616C174.939 71.6124 174.961 71.6173 174.979 71.6296C174.997 71.642 175.01 71.6607 175.014 71.682C175.108 72.034 175.282 72.3596 175.522 72.6334C175.763 72.9071 176.063 73.1216 176.4 73.26C176.41 73.2633 176.419 73.2687 176.427 73.2757C176.435 73.2827 176.441 73.2912 176.446 73.3007C176.45 73.3103 176.453 73.3206 176.453 73.3311C176.454 73.3417 176.452 73.3522 176.448 73.362C176.44 73.3826 176.424 73.3992 176.404 73.4082C176.384 73.4172 176.361 73.4178 176.34 73.41L176.346 73.416Z" fill="#263238"/>
<path d="M181.314 70.29C181.333 70.3148 181.361 70.3318 181.392 70.338C181.413 70.3405 181.434 70.3387 181.454 70.3327C181.475 70.3267 181.494 70.3167 181.51 70.3033C181.526 70.2898 181.539 70.2732 181.549 70.2544C181.559 70.2356 181.564 70.2151 181.566 70.194C181.588 69.9407 181.549 69.6858 181.452 69.4508C181.355 69.2158 181.203 69.0077 181.008 68.844C180.992 68.8311 180.973 68.8216 180.953 68.8161C180.932 68.8106 180.911 68.8092 180.891 68.812C180.87 68.8148 180.85 68.8217 180.832 68.8324C180.814 68.843 180.798 68.8572 180.786 68.874C180.762 68.9085 180.752 68.9509 180.759 68.9923C180.766 69.0337 180.788 69.0708 180.822 69.096C180.97 69.2319 181.085 69.4 181.157 69.5872C181.23 69.7744 181.259 69.9758 181.242 70.176C181.245 70.1989 181.254 70.2209 181.266 70.2405C181.278 70.2602 181.295 70.277 181.314 70.29Z" fill="#263238"/>
<path d="M171.084 67.44C171.744 64.476 172.806 62.31 173.868 61.818C174.93 61.326 177.558 64.962 177.558 64.962C177.398 64.8229 177.204 64.7288 176.995 64.6893C176.787 64.6497 176.571 64.6662 176.371 64.7369C176.171 64.8077 175.994 64.9302 175.856 65.092C175.719 65.2538 175.627 65.4491 175.59 65.658C175.452 66.978 173.946 68.37 172.746 68.622C172.746 68.622 172.968 68.13 172.506 68.022C172.044 67.914 170.88 70.482 171.06 72.078C171.06 72.09 170.4 70.404 171.084 67.44Z" fill="#263238"/>
<path d="M170.4 67.338C170.347 68.1798 170.629 69.0083 171.186 69.642C171.924 70.476 172.902 69.96 173.202 68.94C173.46 68.034 173.406 66.486 172.41 66.036C172.193 65.9374 171.954 65.8949 171.716 65.9126C171.479 65.9303 171.249 66.0076 171.049 66.1372C170.849 66.2669 170.684 66.4449 170.571 66.6547C170.458 66.8645 170.399 67.0995 170.4 67.338Z" fill="#E4897B"/>
<path d="M172.944 63.246C172.944 63.246 175.014 60.846 179.052 61.17C183.99 61.584 183.33 68.43 182.49 68.724C181.836 68.832 182.346 65.826 181.644 66.108C181.104 66.51 181.104 66.828 180.54 66.774C180.222 66.774 179.844 66.066 179.466 65.316C178.728 64.548 177.036 67.008 175.782 67.518C174.642 67.2 173.688 64.8 172.944 63.246Z" fill="#263238"/>
<path d="M149.322 104.124C148.974 109.8 149.7 116.994 151.482 121.266L166.566 120.318L171.864 118.782C170.868 117.756 168.594 112.35 170.142 103.878L149.322 104.124Z" fill="#62CF3A"/>
<g opacity="0.3">
<path d="M149.322 104.124C148.974 109.8 149.7 116.994 151.482 121.266L166.566 120.318L171.864 118.782C170.748 117.582 168.684 112.356 170.142 103.878L149.322 104.124Z" fill="white"/>
</g>
<path opacity="0.2" d="M166.566 120.318L167.4 117.432L170.346 119.226L166.566 120.318Z" fill="black"/>
<path d="M172.026 69.366L171.834 70.77C171.774 71.2043 171.828 71.6467 171.99 72.054L172.08 72.276C172.243 72.6843 172.51 73.0429 172.854 73.3165C173.198 73.5901 173.607 73.7692 174.042 73.836L174.948 73.974V74.4L173.748 74.172C173.337 74.0921 172.952 73.9117 172.627 73.6468C172.303 73.382 172.049 73.0409 171.888 72.654L171.678 72.144C171.49 71.6863 171.44 71.1837 171.534 70.698L171.804 69.294L172.026 69.366Z" fill="#263238"/>
<path opacity="0.2" d="M172.026 69.366L171.834 70.77C171.774 71.2043 171.828 71.6467 171.99 72.054L172.08 72.276C172.243 72.6843 172.51 73.0429 172.854 73.3165C173.198 73.5901 173.607 73.7692 174.042 73.836L174.948 73.974V74.4L173.748 74.172C173.337 74.0921 172.952 73.9117 172.627 73.6468C172.303 73.382 172.049 73.0409 171.888 72.654L171.678 72.144C171.49 71.6863 171.44 71.1837 171.534 70.698L171.804 69.294L172.026 69.366Z" fill="white"/>
<path d="M175.638 73.722H174.996C174.804 73.722 174.648 73.8778 174.648 74.07V74.502C174.648 74.6942 174.804 74.85 174.996 74.85H175.638C175.83 74.85 175.986 74.6942 175.986 74.502V74.07C175.986 73.8778 175.83 73.722 175.638 73.722Z" fill="#263238"/>
<path d="M172.188 67.488H171.714C171.505 67.488 171.336 67.6572 171.336 67.866V69.18C171.336 69.3888 171.505 69.558 171.714 69.558H172.188C172.397 69.558 172.566 69.3888 172.566 69.18V67.866C172.566 67.6572 172.397 67.488 172.188 67.488Z" fill="#263238"/>
<path opacity="0.15" d="M178.266 81.984C178.266 81.984 180.996 95.346 182.862 98.028C184.728 100.71 194.688 110.118 194.688 110.118L192.99 112.242C192.99 112.242 179.058 103.32 178.074 102.042C177.09 100.764 170.4 88.2 170.4 88.2L178.266 81.984Z" fill="white"/>
<path opacity="0.2" d="M173.568 91.446L175.764 98.082L173.01 93.066L173.568 91.446Z" fill="black"/>
<path d="M149.214 105.894L169.8 107.202C169.8 107.202 172.2 88.404 178.8 82.38L175.41 79.59L166.41 76.47C166.41 76.47 161.814 76.344 159.114 76.92C158.278 77.9489 157.516 79.0356 156.834 80.172C155.482 82.378 154.31 84.6895 153.33 87.084C150.882 93.0691 149.489 99.4333 149.214 105.894Z" fill="#62CF3A"/>
<path opacity="0.2" d="M169.92 106.368L163.32 101.688C162.12 100.536 158.772 92.502 156.264 87.18L170.328 104.124L169.92 106.368Z" fill="black"/>
<path opacity="0.2" d="M163.158 76.5H163.914L177.294 81.144L177.852 81.6C177.685 82.0377 177.353 82.3929 176.928 82.59L176.154 82.962C171.246 81.174 166.674 79.458 163.158 76.5Z" fill="#263238"/>
<path d="M164.184 80.784C164.184 80.784 167.91 93.774 169.776 96.456C171.642 99.138 184.254 111.486 184.254 111.486L182.238 113.76C182.238 113.76 165.492 102.534 164.508 101.244C163.524 99.954 156.36 87.558 156.36 87.558C154.44 82.272 161.4 74.028 164.184 80.784Z" fill="#62CF3A"/>
<path opacity="0.15" d="M164.184 80.784C164.184 80.784 167.91 93.774 169.776 96.456C171.642 99.138 184.254 111.486 184.254 111.486L182.238 113.76C182.238 113.76 165.492 102.534 164.508 101.244C163.524 99.954 156.36 87.558 156.36 87.558C154.44 82.272 161.4 74.028 164.184 80.784Z" fill="white"/>
<path d="M158.142 86.358L159.51 89.166C160.11 86.91 161.19 85.566 162.798 85.194L161.202 81.984C159.65 82.9864 158.552 84.5563 158.142 86.358Z" fill="#62CF3A"/>
<g opacity="0.2">
<path d="M147.636 137.25L147.084 145.92L139.614 143.478C139.508 143.444 139.395 143.432 139.284 143.445C139.173 143.457 139.066 143.492 138.969 143.549C138.873 143.606 138.79 143.682 138.725 143.773C138.66 143.865 138.616 143.968 138.594 144.078L137.934 146.958C137.87 147.213 137.723 147.44 137.517 147.604C137.311 147.767 137.057 147.859 136.794 147.864H136.098C135.887 147.864 135.684 147.783 135.531 147.638C135.378 147.493 135.287 147.295 135.276 147.084L134.724 135.138C134.72 135.062 134.734 134.987 134.764 134.917C134.795 134.847 134.841 134.786 134.899 134.737C134.957 134.688 135.026 134.654 135.099 134.636C135.173 134.618 135.25 134.617 135.324 134.634L147.636 137.25Z" fill="white"/>
</g>
<path d="M180.336 106.128L175.326 111.204L182.364 114.39L183.984 118.08C184.015 118.149 184.062 118.21 184.121 118.257C184.18 118.304 184.25 118.336 184.324 118.35C184.399 118.364 184.475 118.36 184.548 118.338C184.62 118.316 184.686 118.277 184.74 118.224L188.238 114.78C188.282 114.737 188.317 114.686 188.339 114.629C188.362 114.572 188.372 114.511 188.369 114.449C188.367 114.388 188.351 114.328 188.323 114.273C188.295 114.218 188.256 114.17 188.208 114.132L184.938 111.414L180.336 106.128Z" fill="#62CF3A"/>
<path opacity="0.3" d="M180.336 106.128L175.326 111.204L182.364 114.39L183.984 118.08C184.015 118.149 184.062 118.21 184.121 118.257C184.18 118.304 184.25 118.336 184.324 118.35C184.399 118.364 184.475 118.36 184.548 118.338C184.62 118.316 184.686 118.277 184.74 118.224L188.238 114.78C188.282 114.737 188.317 114.686 188.339 114.629C188.362 114.572 188.372 114.511 188.369 114.449C188.367 114.388 188.351 114.328 188.323 114.273C188.295 114.218 188.256 114.17 188.208 114.132L184.938 111.414L180.336 106.128Z" fill="white"/>
<path d="M185.352 109.674L190.368 104.124L194.82 109.266L197.874 110.814C197.917 110.836 197.955 110.868 197.985 110.905C198.016 110.943 198.038 110.986 198.051 111.033C198.064 111.08 198.067 111.129 198.06 111.177C198.054 111.225 198.037 111.271 198.012 111.312L197.928 111.456L192.744 112.776L192.372 112.332L185.352 109.674Z" fill="#62CF3A"/>
<g opacity="0.3">
<path d="M185.352 109.674L190.368 104.124L194.82 109.266L197.874 110.814C197.917 110.836 197.955 110.868 197.985 110.905C198.016 110.943 198.038 110.986 198.051 111.033C198.064 111.08 198.067 111.129 198.06 111.177C198.054 111.225 198.037 111.271 198.012 111.312L197.928 111.456L192.744 112.776L192.372 112.332L185.352 109.674Z" fill="white"/>
</g>
<path d="M185.634 68.724C185.636 67.1256 185.28 65.5471 184.591 64.1049C183.901 62.6627 182.897 61.3935 181.652 60.391C180.408 59.3885 178.953 58.6782 177.397 58.3126C175.841 57.9469 174.223 57.9351 172.662 58.2782C171.101 58.6212 169.637 59.3103 168.377 60.2946C167.118 61.2789 166.096 62.5334 165.386 63.9654C164.676 65.3975 164.296 66.9706 164.275 68.5689C164.254 70.1672 164.592 71.7498 165.264 73.2L164.832 72.852C163.8 73.452 163.26 74.466 163.296 75.996C167.192 78.922 171.611 81.0766 176.316 82.344C176.773 81.9522 177.145 81.4713 177.409 80.9306C177.673 80.39 177.824 79.8011 177.852 79.2L177.402 79.104C179.742 78.5529 181.828 77.2284 183.322 75.3446C184.816 73.4609 185.631 71.1282 185.634 68.724ZM176.634 77.61C175.1 77.61 173.6 77.155 172.324 76.3025C171.048 75.4501 170.054 74.2384 169.467 72.8209C168.879 71.4033 168.726 69.8434 169.025 68.3385C169.325 66.8336 170.063 65.4512 171.148 64.3663C172.233 63.2813 173.616 62.5424 175.121 62.2431C176.626 61.9437 178.185 62.0974 179.603 62.6845C181.021 63.2717 182.232 64.2661 183.085 65.5419C183.937 66.8177 184.392 68.3176 184.392 69.852C184.394 71.9059 183.58 73.8765 182.13 75.331C180.68 76.7856 178.712 77.6052 176.658 77.61H176.634Z" fill="#62CF3A"/>
<path opacity="0.3" d="M185.634 68.724C185.636 67.1256 185.28 65.5471 184.591 64.1049C183.901 62.6627 182.897 61.3935 181.652 60.391C180.408 59.3885 178.953 58.6782 177.397 58.3126C175.841 57.9469 174.223 57.9351 172.662 58.2782C171.101 58.6212 169.637 59.3103 168.377 60.2946C167.118 61.2789 166.096 62.5334 165.386 63.9654C164.676 65.3975 164.296 66.9706 164.275 68.5689C164.254 70.1672 164.592 71.7498 165.264 73.2L164.832 72.852C163.8 73.452 163.26 74.466 163.296 75.996C167.192 78.922 171.611 81.0766 176.316 82.344C176.773 81.9522 177.145 81.4713 177.409 80.9306C177.673 80.39 177.824 79.8011 177.852 79.2L177.402 79.104C179.742 78.5529 181.828 77.2284 183.322 75.3446C184.816 73.4609 185.631 71.1282 185.634 68.724ZM176.634 77.61C175.1 77.61 173.6 77.155 172.324 76.3025C171.048 75.4501 170.054 74.2384 169.467 72.8209C168.879 71.4033 168.726 69.8434 169.025 68.3385C169.325 66.8336 170.063 65.4512 171.148 64.3663C172.233 63.2813 173.616 62.5424 175.121 62.2431C176.626 61.9437 178.185 62.0974 179.603 62.6845C181.021 63.2717 182.232 64.2661 183.085 65.5419C183.937 66.8177 184.392 68.3176 184.392 69.852C184.394 71.9059 183.58 73.8765 182.13 75.331C180.68 76.7856 178.712 77.6052 176.658 77.61H176.634Z" fill="white"/>
<path opacity="0.2" d="M165.708 73.428L168.936 75.516C166.536 73.776 165.162 71.232 164.898 67.77C164.614 69.6946 164.895 71.6604 165.708 73.428Z" fill="black"/>
<path opacity="0.2" d="M177.6 59.484C179.212 59.9281 180.7 60.7378 181.949 61.8501C183.198 62.9625 184.173 64.3476 184.8 65.898C184.293 64.4247 183.491 63.0699 182.444 61.9158C181.398 60.7616 180.127 59.8322 178.71 59.184L177.6 59.484Z" fill="white"/>
<path opacity="0.2" d="M178.074 58.932L177.012 59.352L176.088 59.184L176.328 58.458C176.94 58.4728 177.539 58.6354 178.074 58.932Z" fill="white"/>
<path opacity="0.2" d="M147.57 138.228L147.114 144.906L147.492 145.008L148.002 138.27L147.57 138.228Z" fill="#263238"/>
</svg>
